<mxfile host="app.diagrams.net" modified="2023-10-16T11:39:08.858Z" agent="Mozilla/5.0 (Macintosh; Intel Mac OS X 10_15_7) AppleWebKit/537.36 (KHTML, like Gecko) Chrome/118.0.0.0 Safari/537.36" etag="W27N-xNPlDwaj7hY-Olm" version="22.0.4" type="device">
  <diagram name="Page-1" id="W9wcwdVtGYy00paJa3FO">
    <mxGraphModel dx="2074" dy="1192" grid="1" gridSize="10" guides="1" tooltips="1" connect="1" arrows="1" fold="1" page="1" pageScale="1" pageWidth="827" pageHeight="1169" math="0" shadow="0">
      <root>
        <mxCell id="0" />
        <mxCell id="1" parent="0" />
        <mxCell id="QuH-ANf1Q-Q6EwVvL0cK-2" value="" style="sketch=0;pointerEvents=1;shadow=0;dashed=0;html=1;strokeColor=none;fillColor=#505050;labelPosition=center;verticalLabelPosition=bottom;verticalAlign=top;outlineConnect=0;align=center;shape=mxgraph.office.devices.laptop;" vertex="1" parent="1">
          <mxGeometry x="660" y="970" width="94" height="60" as="geometry" />
        </mxCell>
        <mxCell id="QuH-ANf1Q-Q6EwVvL0cK-3" value="" style="sketch=0;pointerEvents=1;shadow=0;dashed=0;html=1;strokeColor=none;fillColor=#505050;labelPosition=center;verticalLabelPosition=bottom;verticalAlign=top;outlineConnect=0;align=center;shape=mxgraph.office.servers.server_farm;" vertex="1" parent="1">
          <mxGeometry x="365.59" y="234" width="85.71" height="100" as="geometry" />
        </mxCell>
        <mxCell id="QuH-ANf1Q-Q6EwVvL0cK-5" value="" style="sketch=0;pointerEvents=1;shadow=0;dashed=0;html=1;strokeColor=none;fillColor=#505050;labelPosition=center;verticalLabelPosition=bottom;verticalAlign=top;outlineConnect=0;align=center;shape=mxgraph.office.servers.network;" vertex="1" parent="1">
          <mxGeometry x="367" y="510" width="80" height="103" as="geometry" />
        </mxCell>
        <mxCell id="QuH-ANf1Q-Q6EwVvL0cK-6" value="" style="shape=image;verticalLabelPosition=bottom;labelBackgroundColor=default;verticalAlign=top;aspect=fixed;imageAspect=0;image=data:image/png,iVBORw0KGgoAAAANSUhEUgAAAMYAAADGCAYAAACJm/9dAAAAAXNSR0IArs4c6QAAAIRlWElmTU0AKgAAAAgABQESAAMAAAABAAEAAAEaAAUAAAABAAAASgEbAAUAAAABAAAAUgEoAAMAAAABAAIAAIdpAAQAAAABAAAAWgAAAAAAAACQAAAAAQAAAJAAAAABAAOgAQADAAAAAQABAACgAgAEAAAAAQAAAMagAwAEAAAAAQAAAMYAAAAAd3ea9wAAAAlwSFlzAAAWJQAAFiUBSVIk8AAAHNJJREFUeAHtnXlwXVd9xyVZkrXLli1vcrCE7diJksj7VidxmIRASdgSPBAoU7YSaGf4ozBtKQXCTGEKdKAzDMvUIR0oTGpIA0maGMIkTnC8L7ITOw5eCXaId1uSbVne+vm+3Kc8W5L9JL337u+++zsz593l3XvO7/f9/b5nu+eeW1DgwRFwBBwBR8ARcAQcAUfAEXAEHAFHwBFwBBwBR8ARcAQcAUfAEXAEHAFHwBFwBBwBR8ARcAQcAUfAEXAEHAFHwBFwBGKJQGEstc6y0hcvXkziWrRv377Stra2ISdOnCgdMmRIIbH03LlzF8rKylq4ruJqohQWFp7q7OzcXFxcXHT+/Pku4sXa2tqumpqa8+PHj+/i/gtKg+suXi0t/z99BJIGTP8Ov7IHAlu3bi3t6uqqwIGHlZSUjMdJxxHH4/hjuXgiUdsJxKqKiopqnLwAB+cwvQCZCiBTwalTp9q5o4P4R+KfibvI58/ks4/42tmzZ/dBuOOlpaWnmpubRRoPA0TAiTFA4HTb+vXrp+KY1+OU09i2cKqJbR3HtThzlRz6woULBRxfEgeaJWmrZuiORUVFCYJBsg7OnyCfo6S9h+1mjlvZbps1a9b2geYX5/ucGP20/o4dO4bSNPoATvcebr0BB2xkW0oUlhbwVJNKsQsZ97J9CRl/TdPrF5MnTz7DsYc0ELBgyDTEDPcSHKxw8+bN42jO3IuTfZr4VmqDoaoNFK0G1ShBrXIGHXYTf0Qz7pctLS2voYP3Sa5gOCfGFcDRX9u3b6/u6Oj4FLt/Q9t9SpIMONlV7rTzNyRIEEQkoS/0Csc/On369JKFCxeqz+KhFwScGL2AkjxFLVFJLfFvHKuWKI4SGZI6XL4VSdDjHOdVe/wDtcfJy6/x44KCIgehbwQY5fkXHOlvuSIvSCFNA3IXSy/p17f28f7HidGH/RlxmoHzfETNj3wM0kv6rV27dlo+6jdYnfLT6oNFhfspWTXiNMpy53owauo5CvqN5bnLrMGkk6/3OjF6sawe2DHqNI9StSQf+hW9qJg4hX5F6DdD+vZ1TVzPOzF6sTwd7gZqilvytbZIqiz9pKf0TZ7z7RsIODF68QQc5VqaGZrS0cu/+XNK+klP6Zs/WmVGEyfGZTjS6S7BWW7ldNVlf+XrYRUEWSS981XBgejlxLgMNR7iyVHm0PwectlfeXkoPYmzpHdeKjhApZwYPYEbz6lp+d6MSqod6DmDY+ntIUDAiXGZKzBlYgZTt0fEiRhDhw6tk96XQRHrQydGT/Pf1593JXreHr0zgb73RU/y7Ensc6VSsN2zZ0/Z8ePHT6u2iEuNIfUZbEjEYcOGlTc1NXWmQBLbXa8xUkx/5MiRj9MRjRUppL4KAekt/VPgiPWuEyPF/JSc98SppkhRPUEO6Z96Ls77TozA+kwxn4JjvDXfn3b35ezSG/2bhENf18TpvBMjsDaOcTO1xZg41xjoPlY4xIkAfenqxAAZnvpW4BQaroz7ZLpS4SA8+nKYuJx3YmBpZtKOwiHmsBt3PDTbdo7wiAsB+tIz7o6QwAVnuI6dCX2BFLPzEwI8Yqb2peo6Md7AYyabkZdCE9sj4SA8Yh1iT4wtW7YMp4S8WasDeuDldnAQHsIlznjEnhi8i6AlNOfHbRpIX04f4DA/wKWvy/L+fCymhFACFm3YsKGO0nA0hh/NU94atiM5P4r9Fs4vxhHy3tjpKqhaAzyWMnSrpT4P0hk/zH4b2wOcPzBz5syjnLe70ly6il7hurwhBk5e+MADDxTeeuutReXl5WN4yX8BeqtDfSNG1Ph8NdsRHA8jVrJfzjYRuDe569sAAfDpxgJ8TnOg9aeOs3+EwqSdrRaVfpH4R5bhWckCbq8/99xzF77yla9c5N7IA/qm9mgYtfDss88OY0n8cRjpLRhD71DMRoeZbOs4Hsp+CaVfQkfOJaY9aKuQ3CYO/OeKCCRJom0y6gZqD4F5FizPcF4LSm9gu47jVrav8umD12677bbjujZqIVLE0GoWlEwjKLEWAP4dgH8DgDcSG6ghEuvIUjNc4vROgOy5JPh3J6597JKI1CA6v5+4F/y1qPTT2GUlNfmRqHye4E3NulW0t8OTWC2rv5B+wV2A/w7A1qoWGkaKhPz2EM2pRKpVzkGO/ZBjGXZ8Ajuu4PMEJ3IqRT8zM+1YL7/88gg+lvJOQP0EZJhFrVClTrLXAv20soHLVaOoU09tom95rMeGD/IRnaeuu+66IwbE6yGCWWJQS3wAAD9DnA2gTogepovmiSRBKOA6IIf6Iz+g9viFNW3MEWPFihXVtEV/BlB3EMusAebyZBwBvTH4NH3HD1v6LIEpYrzwwgsTWYjgp/Qj5qsT7SEeCKgWIazE5h+l9thlQWszT75bW1sbqCm+46Sw4Ba5lUF9RsixANt/R36Q29x7z80EMTQMy0jF3wPQ3QLJQ/wQkN1lf/mBhUWmTRDjzJkzms2prxb5iFP8OJHQWMQImlSfDvwhVCRCJwaAFNG2vJdqVG/RhQqGZx4uArK//ED+IL8IU5pQM5fiO3fuLAGMud7ZDtMN7OQd+MHcp556KtRFpkMnBvNpNCQb67n/dtzShiQ0qWobGhpCfUEmdGIwCdDbTzb80ZIUxSdPntQk0NBC6MTYt29fF+1JXxYyNBewlzH+cKq+vj7UzyyHToxFixbpDaFtwYiECStZkiUXgFjSV7IQt02aNOl8LnTvK4/QiQEIIsYyjUhYCMhzBjk0ZToutZj03B/oHboJAj9YFvhFaPKE2sFJas1U5OWMRqxnO0uzZ8MMGKaD/L/ESFkxMr2b/YV8P2K43jHIh5Ez9CrQuys8KziGbis4fgy9BPq3iaG26zX7lgd865FpObKEGkKvMaT9tGnT9uOQSwCli5IiVEDIXKvwnUOmBzWxDWPd3tnZ+W1kOyCHgrzJB1Fhy5l2/sJUckt+6SF9pJf0k57Slxjq6oOSkUJRbwMukT+krVyWLjRRY0i3Xbt2PTRx4kS9lXdPlnRNK1kMU4oMM3m+8otgtudGbty4cuXKL+NcH+b/j3HcTKxNK0EbF52gVtiK7A/x5aSfLViwQO9wJ8KOHTtUS+h1YOkdnM39hvwVlu7evfuh3OfeM8fwkOgpS8G6deum4Hw/5a/ZgNTLFdk/FTjHWhzpvcz0/PPlOcqROjo63knJ+3auvZX/Gyl9Kzg2MZ1F8qt2oPQ9hWx7wfE5jn9bVVX11OTJk9V/uiTw3stYmi6/4uSckDFfB+aaXbv9EgFDOjBFDGGAoRZi3Iep9huCd4dzCo0cCwdpx9k/1tLS8khfmYsg7e3tE7n2L7jnDox6F1PmyymRQyGI5ObLqwU0k07j6E8g19Oce6G6unpXb4RI6sWy//dAooe4tjoMYqh5h533Q94P0oRakZQr7K2JPkYqCJQYAudewHpJoOU6yDkgRTU1wEf1rnlf+cvZZsyYse3xxx/XK5p69fYOOrT/yfVd3J+zfogIofyUr/KXHJJHckm+K5FC+klP6RsWKShItiL7vZZIITDN1RgSSgGjTcXo3yG+jUMtT584n6sfkZKS9DM41w/7k2dAps8it/pKWuWwhn2tIt6fZK54LempVtKbXG3EXeyrZvs+hUq/FhjYuHHj/ZDiB7mumSU/QQ92nwHjz82dO/cPOmEpmCWGQFq7du0YDPd5dlWq1efSgDIezaMDVPHvnz59+sr+Gk0EwfCLuP9O0rmF9K6FbCU4woCaWpIHDNTs0MjNH2guPU9p/xvOL+8vIQJsFyDbo9yvTyD0V70BXx8UOIdI4Cdg8e05c+a8PuDEsnijaWJIbxysBAPegfG+hBHny4i5NCQi/J78PzTQIUR9Cfbo0aPjSecdxLuJIotezGI3vcD1Gmbt4urlxMeJy+rq6vYN9AureksOp3wYPBeSVk4CeSWal9huFfFrjEI+s3jxYulkMpgnRhI1qv1xlLz3A/CnODdGQOeCIMqHfH9OJ/ZzU6ZMOZyUZyBbrSBOWrOJn+T+29mqmTWkr7TQ7zw1g5pLv2O7hLjupptu0oO5AYdXXnllJIMG/0Fa9+UKvyCf19F1CYL/gObpawNWIEc3RoYYSTwgSAv79+NU78W4CYKwn/w741sRg3xUYss5v0CzqjUTmbDI9E04zM9pHjX3VnuolqBU30r+97GI8pZM5Llp06ZpYPUt0hYps1qwCDMRgnxeZ1/DwT+EEJszoUcu0ogcMZKg0P9oxqk+BvDvx3maguZG8u+Mb0UQDL2XhL/R1ta2dKBrspJGEc3DFpzlq6T1l8TEkBLb3oKeSD+Jjl+lH6GVxwdUAmiN35qamsWk9U+k0SiHzVZI2oE89qDj/0Luh+hHaOQpUiGyxEiiTA0yAce5D4O/j3P6wGSfTZPkPYPZBgT5P9L4McOjy+fPn3+Mc2l5GrWE3m3/IPEjxDHEdIM6qP9NfJjaY0M6N+GYhatWrRrOPK9FXP9xZHxXNgkRyKSO00byeRRS/Jwa4o/B+chtIk+MJOIvvvjiNTRJ9AEYdXDnEScMZhQomW5vW40OURLqfYE1ONxynGAFzrCPeBKSJjqUnCtkv4ZYjRxqwmjY+RZK1Alc168JiaSV6LiimxzteY6fYXCqlW07sY20E8Rkv5TnApXkNxG5NHtgEdfPRd5K5GU3c4H0u0fJSFVyrUa3x4mrbrzxxj9lLqdwUsobYiTh40luJQ7RiLNo/s/tnL+7srJymIZ65RxySsXBBjmGIvloae9TpHmE44PaV9occ1ioPlAd++pklxP7RQilkxpw/ITs5NlJWlpe/xhpq1ObVEgTAeuDWM71JfyfUX1VKGjIlTfslP/j5K2+l5b/38tMARUWeRHyjhhJq8gxaboUU4KJKGrC/BXbO9nWECvkZDhY8nLf9oFACk4ifBsE+A3bn7LdQA12kqadVjJPErOPVKJ3Om+J0Zsp9Ezh2LFjb4cQC/h/KkZvgSyNvV3r55gWQS0AVhpJ2g5WK4cPH/7bgT47iRqesSJGqnGYRl5Ok+BeapSfQI7Uv3wfBCCFhqg/ShP0l6nT1OMCTmyJIQOrP0K/o11+EBeD90PPi/QnqvOp39AP3QvMza7tj/CDvVZGp2Rcpg6lhzcREB7CJa6kEBKxJoYAwAH+h+aUdj0ECAgP4RJnQGJPDJpSqxn736fRFw+UlOAgPIRLnPGIvTfQuXyVzrfG4uPsB926CwfhIVy6T8ZwJ/beEIy4LKOE1CzW2IcAh2VxHIlKNX7siSEw6Gy+QJv6pVRg4rovHIRHXPVP6u3EAAlGX/ax0euhPVbRSAIVk630fyTAIyYq965mbMcpmYpdzMtHlTzZrWEU5nra1U2UlufYhroaX+9mys3ZQP8mptLcycO9bfQ32nip6SRT7DM7AzE36gwql9g92FqzZs21GPwm4nQcYRroafE0rZJRzXEx29hhkvQg9Ef9i5r7pIeeilqkrZXCYxNxi8VFC5KyZ3obGyegFPw7wPswsQHDa8ZrGftD2E9gynFi6z9vTAcRDgEm58Gok/2jnNpP/BkTB7+n//M5xKkp9VaaTPNoIiQNnrCrE6Kne1+GyRCOK7mqEvyuAb9VPe/IvzOx6XzTdPoJRj2RrCHyz5TZ1Ui4CT/hmN2cbKQeG2KwsvcrQP68E2Ngjhfg9nyA48ASidBdsSFG8MDqCTqRZtcysuw3AW5PxOXBX2yIIafjwdWTbF71WqN/FAzwejXAr383R/TqWBEjeHC1lHZyRM0VjtgBXkvj9OAvdh7CyMqv6UQednKkRzLhJLyEW3p35MdVsSMGr7O20jR4EkPnhwWzrIVwEl7CLctZmUo+dsRobm5W5/sxplVrxQtTxrAmjPARTsIrwM2aiFmTJ3bEEJKMsPyOTVor+mUN+egkvCHAKzoSZ0DSWBKDKQ0dlIa/5Ylu7CbH9cdnhA/xaU0k7M99+XBt7IixevXq0ax3+04MPhcDxk7/fjptEQXIPBaEvpsVVUb1895IXx6bRnaw2NpnIcS9GFvTzKudGGn57gXwagevbWx/yaJr329qaupM684IX5TXxMCYhXwTYiT2uYf9r2HYerYRNle4ooOfJmAeYvtlJHmEb4UcZj8vAc1LYogQVP3jMN77GIP/a4YaZ/Iu8yWzasN1sejmLnLwBFyjVRsYyv0vNHmUB3+v5RtB8o4YfJRFCzbfg8E+QZzPfr++d8c9HtJAQM83gvlTmob+IPuP8HGbxErvadxu/pK8IgakmIrBvo6R3kYJVqOaw7wFIi6gagpCGwXQM9TOX4Qc2yOuUkL8vHAcrUELGT5E/HcMJEJ4symH3qnmlSL466HplyicfkzzKtJDvJEnBq+szsMYX6Dd+37vR+SQDb1kJXKoiYUdHuXvb/K8KLKrGUaWGEuXLh0yceLET2KAL2CQiaolPNhAQATBHruQ5lt8z3sJ3/NO/6PmNlSI5vL327dvrz516tQXwVALHFQ5KYx4U4oYIgehg/i9ioqKr0+dOlWrjkQmRK7G4Km1nkX8K8CrtlDPLzJgx03QgByY6OIS9v+Zr7geigoGkSKG1oTimcR3AVlTOryDHQEvEzkUsddTbD/HQ8EdERA7Ok2pdevWTadj90MAnhMFYF3GnghAjLUM6d4/e/bsTT3/tXUmEpPoWltbG/R8AmCdFLb8p1/SyH4Mp3+D7x829OvGEC4235TSk2wAfZh4t5pPHqKNAMTQ847HsOWHLD8pN11j7NixYyhAquPmpIg2H7qlhxTqc7xbdpV9u/8wtmOaGHyTeyYlyy3GMHNxMoAAdr31+PHjszKQVFaSME0MRqBKKV20AnlWlPdEw0EgsGcVtcbwcCS4eq6micEIxjBArLq6Gn5FBBFQM2qsVblNEwPQSojWZbRqW+tyFVJj1FLwmVzHyKzTARitqMJRRLMyWvc8y/IFhGhkEqjJDrhlp6NAKaoQQSwb2GUbGALYVtN5RlRVVZmsMcx+OGbnzp2STe9rWybvwLzC79IUkSLiGPqRai6bC2ad7tChQwKunOg1hjm3GbxANJH1PGMkQ7ZarcVcMEuMurq6RI2hKtccai5QRhCAGJW8YFafkcQynIjZplRHR4cW+9IHJJ0YGTa6leRoDVTzrMokMczWGOXl5fqiqh4AOTGseHIG5YAUSk2DKyMymGzGkjJLDL71pj5GDeTImLKekC0ENOqIRF5j9NMstUFTqp+3+eVRQYBmlEan6izKa7bG4P2LakAz+fDHoiGjKBP2LaDWmKRXC6zJb5YYLAEpsEqtAebyZA4BTUGHHKPoT2qQxVQwSwyG8WpByhxgpqwXcWFUYxCuoRAst6aKWWLQv1BtYXY42ZohoyiPagzCaBZoM1cAmiUGgNVDDl8zKooen6bMqjGYK1XD5WodmApmiQFoJUSTE8xMWTDiwjBXSlNDJltTwywxqGZHDh061Kx81gwZVXkCYjRbk9+s4zGMV0xJYg0vlyfDCAT9DK8x0sF169atpTSjxgegpXOLXxNRBGRjbD3FmvgmawxGKUqoLSoBzBpeLk+GEQiIMSnDyQ46OZPE6OzsLIMU45wYg7ZvVBIo0WemLQlrkhjUGBqNMje2bclw+SQLrQO6lEVvsaSTSWLwwXXNkRrtfQxLrpJVWQqZ6eDEuBrEfBRGT7zNTRO4mtz+/4ARKKIQbBrw3Vm40WSNQelRRvXqH6vPgsGNJqmm1DWWZDNJDEqPIZWVlRrGs4SVy5I9BPTAytQLSyaJQenRqCeiHmKFwDCeX5lZjtUkMVR6eG0RK1LomxkjeJ3ZzFI6Tox4+Z9lbdWUMjPL1ur7Dv5wz7ILZ0E2BluGE800pUwSQyB5UyoL3mc4SeytZ1daktVEMNmUAqRGf7hnwj9yJgSFodYRa8D2JqZUm6wxsIa+m5Azo3hG4SOAvTUNaHz4krwhgckag5JjktcYVlwkN3KoxiAnTQsxUWOYJIaV6jQ3LuG5CAGeXWkzTj8WgjliMP1Y1ak5uSwYK59loMZIrDG1fPlyE4uvmXNAViD0RdbymQF96KY+JeSorK2tNbHIszliUKVeD3a+OkgfDpTPpyFHLYuvmZh+bo4YgGN1pCyffTJ03YIao4KZ1SaeZVgkxnhAMidX6J6T5wKIGLQW9NkHE9PPzTkgwOhdjDx3A1evNwRKS0vVATfxWQCLxGgANHNy9WZIP5dZBPTsikKx6cknnwz98w/mHBBgNJHMq4zM+lwkUhMxqDFGT5gwoTJsgU0RA1D0UXQzc/LDNk7c8sf2UnkcBHFipBqfj97rGUbo1WiqTL6fOwSCptToM2fOODFSYecTxloZRMvCe4ghAkGNMYrRqdDfyzDVlOLhjhZZMzElIIZ+aUJljUhCkIlhC2OKGJQUakr5elJhe0WI+avWwA/GhihCImtTxEAi1Rbe+Q7bK0LOH3I0LV26NNRpQdaIoVXOfc3akB0z7Owhxqj6+vpQh+xNEYMPomvpfzMrRYTtIHHMX00pQnNjY2Ooc+ZMEaOrq+sYoOxSB0zRQ7wQoG8hhbuIW/bu3av90IIpYuzZs2cnSHyaUuNXxAu8mxEaMJ5xbhGgtaBF114n168zw/YfFy1adCa3Elyam8liedOmTcMA6X2I+kVqjklB9Xqp5H6UNwiodYCNH0Whb5aVlW1sbm5WrRFqMEmMJCLr16/XsN3niXcBXiPb0gBEdj1EEQHZTwEiaHHioxxvZP+7M2bM+A37ZpaGMU2MBIL8bNy4sR7Q3kUt8h4O5xLrqXqL+fKSAE5e5lujCIgMahZrygf2Oo6Y24iPsf+7mTNnbrAodiSIkQTu2WefLeNrS9dy/A7iu4g3QZBhWhldoHuwhYA60/QXCpjRcBwSvMTxKuy0jP0Nu3fv7li8eLHZJe0jRYxUs9PM0iuQUwF5PiXS7cTpHOvhYPeLTvyXeovvZxEB1QqKOL5AP03sAP9Wzj1P/D0jjq/MmzfvQBZFyGjSkSVGKgqbN2+u5EuvDVTXIsk0/ruBOInjxmQVnqxRRBYnTCp66e/L8RW0VVSNoMhs2HOcVvNoJ+f/AL7r2N9CR/p1OtId7Ecu5AUxUlHHKIVr1qyppgofhpG0arpqkoUYcA7kUF9F09rLVMWLIKkxNZ2478vxU2PwIZ8u8OrkvGqEl4mrOb+aV1K3Q44TJ0+ePH7bbbd15gN2eUeMKxkFwjRBiOkYtoXrJmNkrXyndYzULBtO1NNWYcIliSHEuOBzEX2BI9H01M9Zjk9wfJD9w8RjHO8gbqdw0SjSy7NmzTrL+bwNcTF8rwZcuXJlXUVFxUgMPRKDj6FWGct2HA6glSp0fhRR/ZZyzmnWr2IJJWRiUTj+4zAx9NjdPOvtXOKiLP0gV6JkTyavYwU1cRSSx7TxdajSXCX+GeQ8GRy3sz3Iuf3ofpiC4090lg+wFSEO8o7M4ZtvvlkzEmIVYk2M3iytF/EZ+SrFsUoUcRB90ETNsuE0G2o5LsOpxnBvMY7UwPmhxLdwTjOD9YKNaiGFmurqak2KTByIMFyf2B/Mjxw+Nc329naV3G1BmofYajhUGe0hdnHtAfJto6/VhgztHKsm6GB7RNeyf5L9s+jWVV5efs7CwzXkCj04MdI3gdoa3Vc/8MADhXfdddcQnKnw4MGDpWyLNCP08OHDiclvDCOryC7RDTjmRRyzCge8gTTeTKQ7tfR2uF8yvIQTd0CQpO0o4M8mGDdy5Mhzhw4dusi37C40Njae43vpF66//np1jC/JU8mkl6Nf5Qg4Ao6AI+AIOAKOgCPgCDgCjoAj4Ag4Ao6AI+AIOAKOgCPgCDgCjoAj4Ag4Ao6AI+AIOAKOgCPgCDgCjoAj4Ag4Ao6AI+AIOAKOwP8DtX2u/a0TtlAAAAAASUVORK5CYII=;" vertex="1" parent="1">
          <mxGeometry x="160" y="73" width="80" height="80" as="geometry" />
        </mxCell>
        <mxCell id="QuH-ANf1Q-Q6EwVvL0cK-8" value="" style="shape=image;verticalLabelPosition=bottom;labelBackgroundColor=default;verticalAlign=top;aspect=fixed;imageAspect=0;image=data:image/png,iVBORw0KGgoAAAANSUhEUgAAAIYAAACECAYAAABVsVOaAAAAAXNSR0IArs4c6QAAAIRlWElmTU0AKgAAAAgABQESAAMAAAABAAEAAAEaAAUAAAABAAAASgEbAAUAAAABAAAAUgEoAAMAAAABAAIAAIdpAAQAAAABAAAAWgAAAAAAAACQAAAAAQAAAJAAAAABAAOgAQADAAAAAQABAACgAgAEAAAAAQAAAIagAwAEAAAAAQAAAIQAAAAACAL0KgAAAAlwSFlzAAAWJQAAFiUBSVIk8AAAGOFJREFUeAHtnQn0F9V1xwHZiYALsdEWAUFTFVAWF8I5oiYqTavSKKQxaDUmeowrNRqX1MOJS9QTXGI8xro0YBuDMahtiogoOQcFZRFBTBVUpC51RbDsWz+XvN+f32/mvmWW3+834Mw585959953l++7896bN/Obf6tW5VYiUCJQIlAiUCJQIlAiUCJQIlAiUCJQIlAiUCJQIlAiUCJQIlAiUCJQIlAiUCJQIlAiUCJQg0DrmtIXqDB58uTd+vbtu+fWrVv3at26dRf29oTfjn3Ttm3bNrKvadOmzSfLli37dPTo0Vu+QNBsD3WXT4x58+Z9hUYfTEP3p6EP5dibyGXfhz0k/m3IfcD+FnreIpFe4bgYPfOHDBnyPvRdcgsBZqcKfPHixfts2rTpRBruBBrwaxx71SsA9C9H/yyO09u1azetf//+kkC7xLZLJAa9Qk9aYzQ9wuk01FDOmxHXNhJkLj3KI9ifTG+yYmfOkGYAmAteS5Ysab9+/fpRNMa5JMPxTUoGWyySJDPw676OHTtOOeSQQzbaBItK3+kSY9GiRXts3LjxfIC/EFD3LSqwVX69R4Lc1b59+3sGDBiwsope6NOdJjFeeuml7gB8GfulINq10Kjqzq0mmW9nv+3www//TBcpDrXwicH8QW4hL2D+cB1JsUdxoEvnCYmxknnIeGrfzTxkUzot9a9V6MSglxgBiPcAw0H1h6LhFl4j2c+n95jZcMsBBguZGHPmzOnKmDyBHuJ7ATGEiqznal2BzgNDK0TlqP869eUOqGOUl7aMzvuZM4076qijVqfVUY96beqhNIvO+fPnD2ZNYEEOSbEOP/6DXSapQzZs2LAnx6wLUu8bPUOMXtEvdlJvEqfEK3GnVlKHioXqMZhPXMIVdAtxyvJ0mk0a6Xd00Y9u2bJlOmP42oqSBQsW3EEjXFwppz3i352DBg26pFIfnzvvtttu32DI+xa009g7VXgJj7IMfwU+35GwXl3EC5EYZuiYCDCnpImSxlpCvXvbtm07SbslJCnORPevNd3UldXLXlGejS5y8M4iOSZG68it9ObNm8ei7zx4B0f5IWV0P87Qcmazh5amJ8aLL774F1xxTwLawBDgIjILAHI8jfREhN5SNF30LAixeQF1l9CIP4H3+5YKO07+Hv5P4R+yg9Rytp6z4YMHD57fQomckIwnU/c6yIMiLG8RuwtJsJFHHHHE/3qF6yTQ1MTgrqMf4E1j750wvlcB7ypXQog+s/bxEvp7KfplLWEow05vhoGnonzoJ0B/C/pc9u5RPvaXs3NT4V6TMAlyE/UT9SDolod2J6J/adR2I8pNm3zSaEMB/rmESbEGUK6kzmG+pBDw0P+AlhQAvpWGP4MrfpkLZOEj+x2Rj8qJXtEfpUfL4qf4C/1KdvE/aKOOJOxzglNQhZyFmpIY0r0T9Axi6REaD40zlQnlX9NYt4QsDMlEFt2jLPqv40r8LwuvhkzDTqWR/rmGuKMwih7BO6EVf8Vv8V/i2FHde9ZDcGrGHUvDE2PhwoWyjiDg7O6F5c8C8gBqHA35Tcbc/wmpQ2MNoQHk7kbbnkTXDRrDRiM5brQ1KElzq9iz1a2mi/8SB7Rx7KEP1gSnqTLsVuuq93lDEwMA9+WqkfE8tKd4E+CP5mq7jYaRF2a826xZs3anzm8RjN3youMdeGNDdVWMiTzveIylrCVme7EndivyrqPokngkLuTedMlW8Xog/5TgV0Wr62nDEsNMBKcRzf6BEc0GxKPohhcEym8X69y58wRO+ih1NpOU30bfxwrPSzryyCM/wZ8xCG5WhPt06tTp5wrdSpK4JD4EZluFqhgkRi/2aYJjFblupw1LDMbKB4ni0JBIAOyR1atXH0cX/lGIfEWGK2ok4J1bKUeO1wwdOvS5CC1REX8kWX9sqfR9sW/hqWSJT+KUeFWBOPFQg2OckzOlIYnB5Oky/D410PcHGYfHHHvssbJWELzJ4hJJcZ+lwjM0wq0WXiIyvk2gIadrlcS++KHxbDSJU+KFLxdOyHaqwTNENrVM3RODu4Mj8e7mEA8BfCINeC7HoPlEtU7mAL+grI3Bq2iws9PorNZfORc93OqKvpUVWtVxX+NHFcl/KjpN3BP90tslbja4BoonF6trYsjVQ9CTcUveqfBtD3PlCOCxNQNfRa6gv0XmDE0OfRcznq/QeGlphx122LvU/aGl/hnGHwtbJ0vcEj/ch3WJGmo75Ccn7Z1qNHgKdU0MlnVvw35Pjw/Cnt21a9d/TJMUS5cu7UB924On33Mlhl6FAW7uEEHvbyjJ3Y+23WH80nhWmsQvOCAQMiHtafC16svCqFtiMHv+Bl34WQHOreDh16n9+vXbECAbE/n888+vgNgnxmjV6mPsn6fQcyPxCP4CGvMDRWEf45fCcpMEB95FkYW5FW7JVq0EX8HZJ5eGX5fEkDe4mT3/0ucQoG5gvD5l4MCBH/pkNT53AfsDzlUaD91Xpr011fRptGHDhn2K/cs1nvgl/mk8H01+nyK4CD4+WcFZ8PbJJeXXJTHWrVsny8T9Apy5mnF1YYCcKgL4MlR1ijIB9Hn0hs7yo9UTlVmsegh7M5VKnYx/CstPMrhc7Zds1c/gHSAaLpJ7YpgJ57UBLswgeGnYVBuz8mOpKF1udJPfmUoXn/jOJqootEwCXICs9mLvKONnqKoaOYOPPFNybsR6bd4T0dwTgwnRj4iimzMSnjIyr5DJZurGo+6NFhu/YGL4soVXFzK9xp/wR135dPjp9UXwEZwQXOMR7mZw94iFs3NNjOeff35Prh7v00YCvp55xTvhbtZKMnafDEWWk6Pbx6wjXBclNqLMy0bXY0d7seYo428qNwQnwctXWXAX/H1yofxcE4Of40mX2sVjfFmHDh3keUbqDRB+Yql8Q7NeiaMB19CA4zW/HP5q4jGawcv57giVuhj8Y/XTEHJLDHPffpHPCWbbl2f5LSdX39exoT3mXgEwd/vs15O/atUqWZJ/Q7ExxPitsPwkwYvkkiHat12YZv1EU5pbYnDfPgrnv6wZqaItYtXQ+n5mlZzr9EqNydX6sywJp+lMSuO5x2bq3GCpp/ptkY2Rmcc8DnFRjFFFAP99pB2qSKlPc0sMnPpBgBfywkvqCScz/K9iR3qMmg2d7+6+++4P1BCbVMA/uX1dHjUvfov/UXpo2eBmm3C3qAlshxZ520kuiUHAsuw9wmbE0JdytxD6eFlVxTAkc5jYBhh3pl05jSnLSGBRTT7VdIemxua/JqvRDH6+l4NHmPbQVATTckkMrI1mb+2yClj3kvWJH5BVdMrYiY6xlXLVcS1L0zK2F2bjzkh6r8+jDon/WeYAgp/gGNUbKUs7SHtk2nJJDK6E0z1ebGZmPckj42QzdsoT1NjbS4D177I07azcYKa5M9Li7W7iSO0RS+APUVnmMtYtoD2sdSuMzInx8ssvf5ksHlpRaDlOzfp9Kmx816K7EHOLqG8k7INRmpQdcWjiMZr5EdLUGKOKIO0h7VJFSnyaOTF4j/JErDqHEUD6TWLPqiowZnameFIVafspel9n3J0dpRehjF/z8G+J4stJJh6FFUYKwLO1aZcwhYpU5sQgO49V9LaQCGIr38qSl4BTb+g4nsodFQW29yEU0caT6PYnK1Y7mngUVhhJ8BRcXdK+dnHVFV7mxEDHcJcRHHwhhzmAzC9iG1fFlBixWASbf9/M4qZ53P+CR4ezXTx1syUGXeLeGHA+XicxnvQ5EcA/JirDFfMOb32/FKUXqcyt62L8eVvxaYRCS0QKwLWfaZ9EeivCmXoMZr8DK4ocxzkOnpfFUnIPhA5SBJ9RaEUkaX4eZOLK4q8X18D2UX3IlBhk7QBVay1xQW0xWQkb2lNUmd3PTKapOdL0bKqftrgSeOnFNbB9VJOZEgONX1W1GqJ09zm8XtffYsN7xVjqNZTMBPRFi0FbXBbxWrLgKvjWUmMlZ/vEpKsImRIDx3pX6YqdkrGZX5jBxiExxXz36o033nhdoReOxMMv8XNd1DFLXFExZzkA315OBQ5mpsTAMadhgtd+BOxwJ87Chja/eHVn+VcRYCC3lbH1DEtccQAcFB++8Hs5qjtZmRIDzb7VtXed1sOY+0bFCPitKK3IZfxdrvgXi0uR8ZGc+JJ8+/gU2PipE+PZZ59ti9JuNsWG/p6H72QTmPgXSz7omXsip+GcmRZ/5VFCavyNiz58u5l2ShxR68Q1TAW5R+ZK+MhVH750oR+7ZFw8gNsNfmyhxlyB2vqAS53Kw8YeMLS7q0XYWalWSk7cHzu9lGqzsLFFoYeS9kavNgdrqQ+/R5obALnqU228vdyBlUdnXZ/TzsoOpgG5l0MkD9YA7OShx6VjeL1tSDu5HLDxUndlvHOQyqDNkZJeHwTStlPqxKhPGKXWoiCQOjH4/rX3d5VFCfKL7Efadko9x+CXTxuYODkxh19OPv+M0P5mXhTFq+6TT2mnqNGQcurE4BW1z/iWg8/GBF5YecAnZOMDZhseNklgNX5Cn8KKonwSMfMmnxFg2fqpqCIeQF3Ob0fVTypFZX1lPqQyAZnLInJbwOYYLh5ZAEu1gc05VLzfVVnaycW38VIPJeY3FKtsig19Pw/fyTagva8I9VRoRSZp/n6YJSlMsD58V5l2SoxN6sQwlj70WMxjde8dxUYvhVZkkuavb3EqJB4nviSe9lGXEL3ZXtTB8HKPFe1K8VSJsf87RuGD7fIvuBV64UjGz9giFNi9loOzTnwZcpentZGpx8Cw75mFtqKY1Fd5Cyq6dTrggAMOjBKLWDZ+doz6BnaxB2tRmYCyD9/lATpUkUyJgUbtam4xRPB/meX1MlHElWX7vab6Ak+L8eKc2PzUEj7Ya8FV8PVUcLaPq26mxHA0WrXNQdWFpOf8UEleeo2tvWN7RFJdzZC3+Qk964tGXlwD20eFJVNicJsX8iKO7YpRHYoS+QX7/0HTvtN1XFS2oGXNz9e4VXU+gAyIxYtrYPuopjIlhnlq5/yRLVk7UrWcjPhsVFy60blz5x4epRepLP5ZuvuZWf0MwHVpmqeqFb8yJYZRMquiTDsSwBFZPwGEjv/UdPN5o1EavSg0h39/yOKj4Cm4enQ428VTN9vtqijHwdjVXG2UK6YNX7o5sZqW9Jwv1TyHHe3diDFJdTVYXvNvPZjMyOKH4Cm4unT42sVVV3hO5b7KwueqmMbB+eICQfxDiC6bjFm9eyLKR++BLAsfHaUXocxS+zDxT/HlSbr4tQo9mBSA5zbTLsE6o4KZE0O+6kt2zo0qjpRHyr/RjNCSFh+yVDjHQm8qmcY7W3MArGxxaOIxmsHROW+T9pB2iVVOQMicGGKL2e8jHptteSj1XY+Mk80DrWcQiC0j0wDfyTqHcRpOwRR/xC+l6md8EkqdLymyKomeYCyMtirTEAPaw1V9Oy+XxECT/KrbOZyQxT8ArNT2qL+VXXuS2Jkx9/veSBsoYPzpHDWJ/5OyfBLK4OeLVdpB2iPTlrqhqq0yZq6gPLOappz3Yz5wukIPJtHr/ArhzUqFi7J8wkjRl5pkPgl1saaAK/lujR5KM/j188jPNO3hEXOzc0kMMcHVcK/b1Hbu1WS9++0ehxL5BzLYeSwqgs79eO/gnCi9GWXjR+ypJ34/TYOlXqI2uF3tiymwHXxqst+VVCwwdk7BKd9j3gG8tHJKpU6aIzZu0eoB3I/r8e8ZNFs2mtgXPyz8my30ILLBzfnQTPCXdghS6BHKrccwY+ddHnvSs9yapQGZhModkLYO0JMvzVzgs19PvrGvPQqfxxL402ltC16CW0D9u7LMYar155YYohRgZAxdU21AOe/L5xfHKfRgEiD91CJ8zZw5c7paeHUlG7vXaEYc/mriMZrBq2+MUUtYY/CvpaYs5ZoY8gkgQLjT5wvd7bV8Vc73yNiqhqvvj9iZrgjszVvR4xV63UnG7t6KoTn4G1ucU+RUkuAkeKnMKqLgnsMnrVo05poYopVfPkmX53sXtAtvL/8rAaeeiAKEXJ3aLfJFzN4Hii+N2ow99QP7xOidMNr8FHwEJ/hdbDKGvsrg7hELZ+eeGAMGDFhJQNcHuHA8y8aXBcipIjLXIDkmKUx55e/uLEmn6LSSjB0ZQsVudJvCncizUWJo2eBzvE9e8BbcfXJJ+Lknhhjn/5zLcOJ8HG+cvJHgDzPniQ9cTVdSaXW0IkANQ+85UXo9ymJH7Cm615G4qRPf4HKjojdKWmrwjtIzleuSGPLvIViM+qHPMwDtwKLP44sXL071HQf5Si7gq3MKdP8s62uFPv8ZQnpgR70Nxa+bmFu87dOh8QUPwUXw0fjVNMG5Hv+Ooy6JIY7Lj3UA59fVQVjOe27cuHFK2pVLHslL7/Sqols+03CvQs+NRMPJSuxeisI3WU9Q11sU2RqS4CB4QNRue2tkBV/BuYaYU6FuiSH+MSGSrnRFgK9Hr169Wiajif2RR/IApC5BY3cUV/WZAfYTixi9oywVL0mzniDxg4NcTCGvErxt8LW4kI2cuCGSmDMT0dHU2RRQ79uMqw+mSQ667Bkkx32aDfTdyZDivfq0ujaa6BO9Fv6/8fPJxE9QJW6JH53ayz1RU/I/UcbkPeGsNlLXxBBDzMpf4CCTRO9GsGdyJd7HsbVXOCKwdu3acZC0Mb0bSfNgGp0RE9uLokf0Ueim8N9jPUO9bVVkW0ii08Qd2rvJf6EWXOu21T0xxHOuoNs4xB5+WaI6myvnt3w7KvYjHYv8dvLw4cM/p8G+R0Fb2zgOnVe46ofyjJ7jNHnsn5v0KpY4JV70na3pVGiPGTwVVn6khiSGuMvsWQJ/JcR1rqDT+SX9M1xFPULkKzIypHAuawqxDZ3XMwQMjzESEKS+6LFU+RfsT7XwVLLEJ3FKvKpAnPiKwTHOyZnSsMRg9vwZV5S8FKx191pYRwPYHBpjkMa00ZiQybClraHIW2QPo09btrapa6FLPakPQXt76k3+v/o/tQgHnEhcEh+iIRNNefi4XPATHAPUZxZpWGKIp1xR7/Fq2gmcfhToeR/AmM0j58sAsXVIHfnHuKwBjKHehqg8OvaDPilUV6W+yJt6+1VoVceN8MbIUFZFs56KLomHOrMR6mMVrGV8RFKeKPjVkutXamhiSBi8bPM6h5HsQUAi1559AuPwH3gR9q84927y7ypoANsVfBK6rvEqqRIw8idVkVpOaeAf0WDzWgiOE/Ff4kBkArvEFbIJTiMNbiHyucg0PDHEayZP87kC5BlAaM8h/21gJL3Nn7jarqAbbueLHhu/ROZRi9x4GuhvLLwaspEbX0PcUZhCUthuW1ukxF/xW/yXOFoY/hPpKY4XvPyi+UoEdc/5mtyhDdD7AdQ09t47qEFnr3KlXkWjPOGSpkG6Aaz0Hpp+GauHwu/N0PNUVA90GfKWw3uRY/coH/sy5jPku8d8JpgnY/8m6h8c1eEqo/stdplTaPMlV9VceE3pMSqeS9A8CBsGAAsrtMDjwYD9OFehbH9nq8O9/ioa9jT46xSZ7th9DP6XFJ78JOJL2JCl6VhSQJNfk53mSgrxS5wTP5FPmhQLBZdmJYXg0dQeQxyQTd5+at++/URAPOXPlMR/pQf5FXckk7R1BK7aseieqGml3nJ4vaI8G13k4J1FbxXTt2jRoj1oULF1HmKJkqFiH92P86zkTPO/Wyvkhh8LkRiVqOn6LwGYWyiHTswqVStH6Rl+xzDwKJ+znk6PsbbC4OK9nfNLKuW0R/y7k6Ro0YPPnZk7yJf/voVO6Z06pdS9kYS6Ap/vSFk/12qFSgyJjAYczEFWAg+QcoZNkuRp9mnsc3hv8lV+CDQV8I9Jq5Ok+CPvVY7kYy7SG8j3KWRd5uvsaZOBqtu3N/g7phmTTGM/dihcYoiHZmiZQCPKEnde23oUvc1+UAaFr1F3f/ZEy/UueyTb/Qwd45o9dER9LGRiVJzkrmUEXfQ9lLM0ZkVd0Y6vMeSdzwRzZtEcE3+aelfiA0RAo9foz34pV9ZKn/zOwJc4JB6Jq6hJITgWuseobmh6j+6AKUvjl0Jvym9Hqv1Jcb6apLid/TYS4rMU9RtaZadJjAoqckvImHw+AF8Ibd8KvcDH90jmu7gdv0e7lS6q3ztdYlSAlJ/tcYcwigQ5F+Bleb1IschTtxn4dR93QlPq8bJuBYd6HYsEZuoYWUuQV/dGM5k7ncYYynkz4pJkmMtk+RHsT2Y9YkXqgApQsRkA1jVs+RQRK6AnkCAn0FBf49irXgbRL6um8j9HprPi+ZT8nKFethqtd5dLjCiA9CZfoeEG04D96VEO5dgHmV7s+7CHxC+vCn7ALg/N3qRHeIXjYvTMp1d4H/ouuYUAs0sGLv8VoG/fvnvS0HvR0F3YZRleHufLG9iyPL2GRPpk2bJln+4s/xV6l2yoMqgSgRKBEoESgRKBEoESgRKBEoESgRKBEoESgRKBEoESgRKBEoESgRKBEoESgRKBEoESgaIg8P+Wi2mUMk58jgAAAABJRU5ErkJggg==;" vertex="1" parent="1">
          <mxGeometry x="365.79" y="754" width="81.21" height="80" as="geometry" />
        </mxCell>
        <mxCell id="QuH-ANf1Q-Q6EwVvL0cK-9" value="" style="shape=image;verticalLabelPosition=bottom;labelBackgroundColor=default;verticalAlign=top;aspect=fixed;imageAspect=0;image=data:image/png,iVBORw0KGgoAAAANSUhEUgAAAH4AAAAsCAYAAACjZQx0AAAAAXNSR0IArs4c6QAAAIRlWElmTU0AKgAAAAgABQESAAMAAAABAAEAAAEaAAUAAAABAAAASgEbAAUAAAABAAAAUgEoAAMAAAABAAIAAIdpAAQAAAABAAAAWgAAAAAAAACQAAAAAQAAAJAAAAABAAOgAQADAAAAAQABAACgAgAEAAAAAQAAAH6gAwAEAAAAAQAAACwAAAAAcH1qeAAAAAlwSFlzAAAWJQAAFiUBSVIk8AAABD1JREFUeAHtmE1IVFEUxx0rKwXDKCjtQ9tUVgslKq3INkEJFUVIULRrU/QBQbVwZQRJQS0T2kS0iVYVGEHUplVfpFlWklAZpLhQUtHKfufNvXIZnXlzZ4aZjHPgP+e8c86995z/+7pv8vJUlAFlQBlQBpQBZUAZUAaUAWVAGVAGlAFlQBlQBpQBZUAZUAaUAWVAGVAGss5AJN0Vx8fHtzFHdcw84+ZYdGckEmmNiXsdssZMBjQCqbeJ+ca8Jphmyf98vxS4BPwBiUTipelwz/gaZ4Et6cw1HcZmo9/8NIkYYPxgyBySMxSSExae7yS4tuP+r0y3R9fOWJPyCE1ZeOQOcHUuY4IyM8l9dAXoBvVAHvVd5I2i88jdjKoFcsH9ADKuChSAd+AGuZ3oQMiX+vaBA1FP8HsE/2rnWOa5ybjf1kdc5j0M1gEhTuZ+Ce6SN4wOhDx5dewBK6Oe4PcOv9JTAygHD8EtxvWR71U/4wLxqCelfu06OdM0+ByIvIgtAl8hGJVgAhkitsOOxa5PkOuGdjpjjhEYdIOO3YW9wcmtdWKJzH6CpcCrflmHMT71ePdre8mppslEJ34G8U8gTN7YJkisAmMhA4aJV8sYdENIroQ/gyKTX449ApIRuUh86/etx6tfy1PONcTEPfGG6Hxyuh2Wb2PPA4tBu/H/Qs+yzWCXALlrrJzAWOFgjpPbYZPQ90AlKALbwXdgRb4QAsFRDA7agNE/0ceBrHMBNAKp3at+8lOpJ+l+bQ851zSa8MRLgeS0AZHXbsEcXwu80Z/gjrRxXO4jcLf1u5oceRQnKw9ixm50Br7HXuvGXZtYUvWTl049of26NaVip7urT2VNOyZ2pz+xObMJnrrQI182b/GkmY1ce7yg4w+rP1P1OEtmzkxrV5+5Mrxmmutmc2fJ00FO5EcwAuyj/5HxoSbJh0mezDu6mTIT9UzZLxenfKmkLGnf8RB/FFwHLVSxxlQi79YW4z8lPuwCIO/WUpMj78/zJrYJvdX4RZ0l5l6Uo07sNLGT4CJ4ir8PdIAz4DGwYh/XbTi+gWJQAw6BRUBqqgJXMJvk2IjsJ6R2wVWwXPxor/rNXF71mDGiQvulnnNOfnZNFpeTl4yUk7QrTuJ6/M+miNXZbogtAPKpl0guE1wK5NMrTIL9BUmtYYnEm6UOtHf9jPGqx7dfm591TWOzwVsQT+TvWtnwFYIy0ANckV3vQtAEZDdvpRND/oSZEI73glc2wdFfsS8BuaPlBFUA2dFPJfJp+ATUmVx5siT6XOwlvt/kplQ/45OuR9axwrik+rX5vlr+uZpWAiHyL1sl6AcdvOt6p2qAvBL8q4A81iXnC+ghfwyddUm1nmT7zXpDuqAyoAwoA8qAMqAMKAPKgDKgDCgDyoAyoAwoA8qAMqAMKAPKgDKgDCgDyoAyoAwoA8qAMqAMKAPKQJSBvyyAA8HGGNZgAAAAAElFTkSuQmCC;" vertex="1" parent="1">
          <mxGeometry x="357.44" y="826" width="97.36" height="34" as="geometry" />
        </mxCell>
        <mxCell id="QuH-ANf1Q-Q6EwVvL0cK-10" value="" style="shape=image;verticalLabelPosition=bottom;labelBackgroundColor=default;verticalAlign=top;aspect=fixed;imageAspect=0;image=data:image/png,iVBORw0KGgoAAAANSUhEUgAAAU4AAAAsCAYAAAAKGFGMAAAAAXNSR0IArs4c6QAAAIRlWElmTU0AKgAAAAgABQESAAMAAAABAAEAAAEaAAUAAAABAAAASgEbAAUAAAABAAAAUgEoAAMAAAABAAIAAIdpAAQAAAABAAAAWgAAAAAAAACQAAAAAQAAAJAAAAABAAOgAQADAAAAAQABAACgAgAEAAAAAQAAAU6gAwAEAAAAAQAAACwAAAAApt13HgAAAAlwSFlzAAAWJQAAFiUBSVIk8AAADOJJREFUeAHtmw20VUUVxx8QKFgIBvGVPNFEQGXhFyJUgpkJYpplgOWi5WdCi6XZitSwhaCGYWm16ANtLV2ApVaaoGWFSKKhKQqEfIYg3whioDxAeP3+581ch8O595377j3PR+y91v/Nnpk9s/f855w5M+fcV1FhYgwYA8aAMWAMGAPGgDFgDBgDxoAxYAwYA8aAMWAMGAPGgDFgDBgDxoAxYAwYA8aAMWAMGAPGgDFgDBgDxoAxYAwYA8aAMWAMGAPGgDFgDBgDxoAxYAwYA8aAMWAMGAPGwCHPQKNDnoEGTEB1dXUbwuvlQlzYqFGjDQ0lXGJrTiyng8NcTC8R3zsNJb7a4jjY469tfFafLQMfKVf3XIi6gfqCz4PTgG6ixWA26Aae5Mb6D6lJegauwHSCM7+d9Pvpm2Zu+Qwezgy8XIM+OcjXqnLNHIHRRaA9qI41iOdncv3Mj9mUki1H/K0IYDDQA06bEGE9+B0YCE4AGoewEzzKGLaQHrTCnJ1I8ANAU6BxbQIPA933us8l+8ArjPUfUa4e/hCX1rIxQHMwDt976sFtaS4Iui1YBArJjNK8HHqtIfO7AaHjGxIDxPViEJvUq4uNjzY3xvoolB1RbP+F7HFUjvjvzBPw9/KUTywU08FQx7jWJoxtTELZe5T500jmQ8PXWUEMn87aYck7ToI9iiD/BroHwepJpJU/lE5hxvRUDEzHaq+z/HuqFvVndDGurgW3luBybQltS22aVfza6eik9T6I318bSw26AbRfQwwdgzg0zmVgN2gWlGtnrbr6Eq1DXkLdl5U1jU9sXTq/hUY9XUO9gxsGngNHAtXdAA4QFtyPUng20Lb/JLAIzATPss3eTlqBjerOAFqEmwMdBVqCx4GOA+cDTY7yfwCqPwfoGCGZB84F/si0AP2P9P8KaST4UN86LsrGyyMoncEQcAz4C5hCu7dII8kifvqvUuf0XUlyIdBR1stxKK/6TDyljY6LVwEdpdqBt8G/wS4wi77nkuYE+05kLgcnA11orwPx8ntsdazcT7AXt18FPYF2EkvBclBnwc9v6XcOHbwM2gLNz1CgOWkCdF1MBTnBvh8ZvRJqDHRM1DhOAbppNYb76XcJ6X6SUfw/p19df79wzkaSPoj/HZR3QNd1dZ+ru57ye52uOc5kvui3TtezjytFKv7fBHq9onk7h3H9F79/RX8QDAKS7pT7h77GW+v9XtOs5m9afrDTGnYJuDRoP5zycCOn60TzkosnsP1wVAJ8GUiqwPHxKCibo0rkaV+HXgmWgyRZReGnQDuwL8kgT9kDlG/IUxcWv0/mziCWvmFlAX0rda3VjrQSlD3+IKYZ9B+XF319PMXwdKCLN58sC9tgNBJsz2O8gvLeMfvrKdP8FpKrwzbF6HS6zHWsB6f4nQt01BvmypVcClqA3coUELU7L/RPPrP46XtoEMuAmN/w+PgNX4d9ZvNF30Vfzz6utCk+VrsxPxW2oWyyK9emJieUVYKC90vOGAXb1PxgewFIIwNDHx+qTrStwF4XtZ44Bwh1PcE40EuVpJXAE48aiRazUNaRORmkWQh9u10o8fdWvi4p1e5A8RwDalsUfPs+KJUgq/ibupju8Q6DtNDCGR93fHHZoX4l9Dck6DOfupKKaLdLOjhmpIeZn/OwqhwL5xY6/GnQ6a3oV4LR4AjQBOS7AanKyfya0UbjzTR+PA7Nea05IXnX4jrfwpnlfBV1PeeCLUJhXP76X48+NsASdElu4USvBN4eNZKk+72rDwGLYvg5Bfs9Nd3m/buTmlN9/x96SjAnBaHenCYg7EW0l5dQdFTURdYDaKfh5ccoh4NtrkA7qt5gtsvrBr4cTHJ5Je3BN4O8VC3auulUdzfwov50HJTvlmCYr3Dpu6TfAseC8WAMaAyyjF/Ht0jwox23fK8AkkIL5+Yak+jvr/h7NtCD5wkg0RHW97uopij6q3rxLn4GAN0IXsaoAZmlvoBUO4ojQTOgDzvhAlqOhZMu95OxNVF/8JdazcEbgdU0dMXUASx05box/UMo0/jxU5eFM7P5cnOW+nr+gNn0GmNe7XjOl4QLZ+r7xUdAp6n5ceNtTZuRQTCj0HXveBzu+24QKYGFC+dNaYKijV8c30b/RNiGvC5+/zRaqDrya4Bkhss/XpOt3uDyt7u8kjZgYJCP2sjOC3XTg/po0VYdZWcG5YvR9X7tAKE80/jjDvE3z8VVaOFMOtqr2SagxVHvozTGjiCtqM+jAuPn0PX+LCfkfxbUZ7Zw4kPvsXJCfoHzu987X8rudeVK9DDIPH581GXhzGS+cgShEFeq6zlsk1an72IWzqLuF8VA/6n4CeOlzQXAyxfDuix0vWAvRbYEjc8K9EKqf2m7nJe1m0JD8uvJRwsiqT5YlCr6gBGX3LGVilbxSpe/i1iihTuhvj7jT3CfWHQtpdMTavTBZTD4E1eUFr0WCTb5ijpTIXh5HU70a4lQNoaZMugv0IcWee9Hp4Ibye8ivTuh//diZfGX//URv49VoYjvUKLXHWGB07OarwRXUVGh6zlfmzTlczDqGODRhEZ1uV/S8pPgrn6K9nuSF+tSCx0X9FradQIXol9G2bSwH8r6kf8O2ESdCJkLzgW9qOtP2Sz0SMhr8W3jsqtcWkqi7fs6OpgC9JD4OvgykOhraNLCGlUW+FOf8RcIo6aK8WnXPgtoYewBtPCcCLRjHgL0cDgDfAY8D6qAP7rovfQykCTiZiXQwqC+L8HXKOZrJ7qXgV4pU1pF/xvx8xX601h+Ax4BmrtBQItoMVIf8b8RBDQK/WHlGYM4Gy7dSXQ9Zzxf3ld9pduZr/XeGWPb5vUgLep+KZKf2YGfUG0eZuhTD7DOxJp7ZRXW10UvaeF0Dn9Eeo/TpxLkMPSZYB/QUVgXT+SHunHoTwItnCp7mrJfkop8Pa1HgMOA5CnqdPzzu0K9FtDuyYve41znMy79NukLQVlT9LscguJInepuUv2URQtq7tiOrgW3T2RVUaFdzU+wjS589Ezjx+9kfFwJtCBKutckFRr/r52+g3QiMemhoDiPc+XifRLQw0w/R9oDvHTBfjZ9yEaLkESLqxZO/QxIO3z50qKr/iZh/w72r6H3AqpfQl7j16LQF6i9l2uo20Gbh3xBbSn27bHRnHdxtqdR5seooglAi75EH4aakY4GHVWA6B3WTfjUD9HFgx4OXmR3G8gsfudoPum7QDdnP+KYRzodnAo8z5qvfwFJZvOlzvFf7PWsZqmEvjVG8Xq0a6DXAePRNU9XgfNdeSPKJ6KPBanvF9c2NT/YhwvnbtdeyQ3417XVDvQDvYG+l+ha+SF6wxACugPUJtEgMWoOHqvF+M/U6ydJcdE7O/+O09c94BWX3hzLJ2XVR7TrIpWv2kSLbyQYZh3/Q7UF4+p/oIDQL0phvw4bLXyyPxpsTdHmVWevn4bsTmEvE30s+pjapRFsb1GjlLIUu0F5bBXj8wl1/SnLLH4/Rnx8LcF3WKRFJRIKs56voq5nH1ealNjD97nh+JJ+BaJ6fVxNe79oUS76evZx46cN0E/RCokW84YlRHsd0AeEqljk+hetCUC7hUjQtXvQF+74z402UqYPDk0dXiP1opt3CtCuVqKv6nPBbco40U9VhvsMqSZUX4KfBdpt3QfO83EoJT8a7AH5ZDMV/nhfH/Ffgb8d+YJx5eLpCy7+9uiLwTYgTuLyDAXa/eSEfBfwBEgScTEL9PcN0PsA/5EKNSfhV3XpM0ET3662FNvPAb3HTCPy3wnoIRCKfiXQFujXE/7Douq1O+6kGEgziT8cHz4uBvHY3qLssphdpvOFv6Kv5zC+Qjp9dwXavISyksxnweqwEF1caLcn/mu9371fbIvmJ2irOUi6TtdQrjWopbctNdWRq6xCcFogdaO2AAvYGm8u5AD7rtT3AIuxXVzINk0d/Q3ETscDyZfo87EaNZu/5Y6/lCiJpQPtjwcfB1vACsavY3uiYN+aim5AxxrN05tgHW32kB4g2H+SQtlrt74KLMJ2L+lBIVnHT/+NIUL8HwtWA13TefnBPtP5wn+DE8ac+n4vlh8/WNqdgK41ZSvQNVpwDfLtDtkUwrqB+4GXaSgjgC5mE2PAGDAGjIE4AyyQ8aO/X0D/Gbe1vDFgDBgDdWVAR4v/J9mQZzA6tpoYA8aAMVAWBsr+jrMsUdWxE7aXzWmqn9KE46oirx/bV9exW2tmDBgDxoAxYAwYA8aAMWAMGAPGgDFgDBgDxoAxYAwYA8aAMWAMGAPGgDFgDBgDxoAxYAwYA8aAMWAMGAPGgDFgDBgDxoAxYAwYA8aAMWAMGAPGgDFgDBgDxoAxYAwYA8aAMWAMGAPGgDFgDBgDxoAxYAwYA8aAMWAMGAPGgDFgDBgDxkADZuB/taM4QGk6eUIAAAAASUVORK5CYII=;" vertex="1" parent="1">
          <mxGeometry x="572.1700000000001" y="1060" width="227.73" height="30" as="geometry" />
        </mxCell>
        <mxCell id="QuH-ANf1Q-Q6EwVvL0cK-11" value="" style="shape=image;verticalLabelPosition=bottom;labelBackgroundColor=default;verticalAlign=top;aspect=fixed;imageAspect=0;image=data:image/png,iVBORw0KGgoAAAANSUhEUgAAAHoAAAB6CAYAAABwWUfkAAAAAXNSR0IArs4c6QAAAIRlWElmTU0AKgAAAAgABQESAAMAAAABAAEAAAEaAAUAAAABAAAASgEbAAUAAAABAAAAUgEoAAMAAAABAAIAAIdpAAQAAAABAAAAWgAAAAAAAACQAAAAAQAAAJAAAAABAAOgAQADAAAAAQABAACgAgAEAAAAAQAAAHqgAwAEAAAAAQAAAHoAAAAAtCZ33AAAAAlwSFlzAAAWJQAAFiUBSVIk8AAAB0ZJREFUeAHtnVtsFFUYx8+Z3dYGKPAkglzloj4YTMAoEE1JCihKu2xTE8sutGJ80zeC0JZMaGm9vOkbCQrdisZNYIFyETVb8B4hXh54UeQq8qKAiGm7OzN+B2jZndkus9uZnUPnP8lm55zzzXf+5/ffOdOZnZ0yhgUEQAAEQAAEQAAEQAAEQAAEQAAEQAAEQAAEQAAEQAAEQAAEQAAEQAAEQAAEQAAEQAAEQAAEQAAEQAAEQODeI8ALkbwtGnq3kHjEukugOZZ43W4PQbuBIs5g7LVC4hHrOgHbRiuuS0EHUhCA0VLY4L4IGO0+Yyl6gNFS2OC+CBjtPmMpeoDRUtjgvggYXRzjfjrVfGX8xP4KQ2FzGONJcxpqP68wXpW+cLVMvIuyOUZsJ7a/mYfyUXu/NcaZmoLOo53p8t7PYhjs7dbuxI7bIznd2fB8nRYsO0MXGibcGR1v2hzbe+x2+VhbdHUTXYn4Yqids2uB9EDdptjBK7frdrRFQjM4Z61DMQ6uYI8uBmaAfZW52abdB6+Q+acy67S+YFaMuSzixXaZ2zBT3qy2ERZgdBEAFY0tytxMbQxNpGvJj2bWlVeks2LMZREvtsvcxpw3s22k69Sf/aU9GqJDDRaagvvo+PoqHX8/qpheOSVtBMQ0Xm0iQ1O5EWnu3vfttkjtIsZ5N7XPMsV8HuTa+r7z1y8Fp018ifJup7wVpphhiy2xhG3/bAeK3mC0hblONXebFZ2KsXReiNF3E2lJjoosAnb4ORWT1XGhBTsiCs2JeAkJwGgJTXFDEox2g6qEOWG0hKa4IQlGu0FVwpxBpzTRedpJZvATTuVDHiLAjYV04WKBEywcM1rnrKc1tld1QhRy3CLQtjakcsMZozF1++RTBaNhtE8I+GSY2KNhtE8I+GSY2KNhtE8I+GSYnu7Rb71cU9kWqXnYJ6w9HaZnRguTUynlCOfKcbpxLus2HE+JjNLOPTFara8fNzDADxPTxfS6nzMj2dFY98goZSzFsEpu9DvR5WMDFalDnPMlGQQm6Vo6iWk8g4jDqyU3+kZgQiV9ATLJOg7+AE3jyY61q+dZ21AzUgIlN1rdGb+cTulLGWe/5hA/2aBpvK2hbm6ONlSNgEDJjRZa1Y/3X2IsvZRWfzNrpxvbp/CAnuyM1Mwxt6FcPAFPjBZyW7p6/kjrijD7d6t840GdpvHOhrqHrG2oKYaAZ0YLseqHey6yoFFFq2dEOXOhL9ynagGtty26alZmPdaLI+Cp0UJyywf7LtCvFapo9Sy9zMs0xgK9nY2hmeYGlAsj4LnRQu4bXQfOM02potVz9MpaOGPTNY31tjeEZ2Q1oFAQASmMFopbdu85FwiwYX5HzGawgN775tpV0wsaHYKHCEhjtFC0aWfiLGM3p/ELQwrvrMykH7P1tjfV0nSOpVACUhktxLfGDpyhpwAspSn7Yo7BzGJpnlTXhKfmaENVHgLSGS20tu5KnFYMuqjC2J85tM8OKnpyWyQ8OUcbqoYhIKXRQmuaKWKvzXhURNYILqbGpK5l1aCQl4Bj93Xn7aXAxvZ1Nc8wnfXQZmMsmxr8+H38xgst24/+Z2lDxbAEpNujOyK1TzNdOUSKx5pV00WUL8nklRtiR2+Y21DOT0CqPbpjXXiJruu5TTaMr7X+8pUb4jA5v6W5W6Uxuj1Su5hMFjcjjMsh9ZvycuO5jd3xf3O0ocoGASmMbl8Tfopx/QjprbRo5sZ3ZUHj2Y3v779uaUOFbQKeG701WvskY/qnpNhiMp1Lf5/SBla0dB2GybYtzR3oqdFb14SfUDiZbLDxZnlk8g+BvrIVzfHEP+Y2lAsn4JnR7dGahbQnH81+rOLQAE6kAmx5czyOc+UhJCNb8cToretCC+g8+TOSnvXkPDEU2pNPksnL1J2Jq3aGRs/PDNHzM8N2Yu3E0B0ue+g5nwk7sfdSTMmNFneNaLqW02QC96OipZapsYO2TBag6ULAfDq/jjoFnfKdplyjzuiSXzDpn/fYWQK5z2KMwX5Kl5dVWx6EaglERTEESm60qqp6evbj6w3GuzIE/6wovFrdEf87ow6rDhIoudFCuzBbmz2/iY6H3XRU/iWd1qo3d+39y8FxIZWJQMmP0YP9C7M/qa9vPDU2VanGDtg+Jg9uP/iuBVgPN4zLg+WRvuvK6HyykmdGC0NejMc1eivaZJFjy67ESXoTLyx5CHgydefRgyaXCMBol8DKlhZGy+aIS3pgtEtgZUsLo2VzxCU9MNolsLKlhdGyOeKSHhjtEljZ0sJo2RxxSQ+MdgmsbGlhtGyOuKTHsWvd9KT4LfSf7lpd0unPtPRdrlMDd8xoEiREOSbMqQEizy0CmLp98kmA0TDaJwR8Mkzs0TDaJwR8MsyC/uqmP6nf8wkXDBMEQAAEQAAEQAAEQAAEQAAEQAAEQAAEQAAEQAAEQAAEQAAEQAAEQAAEQAAEQAAEQAAEQAAEQAAEQAAE5CbwPx9AnsGdrQSrAAAAAElFTkSuQmCC;" vertex="1" parent="1">
          <mxGeometry x="230" y="110" width="80" height="80" as="geometry" />
        </mxCell>
        <mxCell id="QuH-ANf1Q-Q6EwVvL0cK-12" value="" style="shape=image;verticalLabelPosition=bottom;labelBackgroundColor=default;verticalAlign=top;aspect=fixed;imageAspect=0;image=data:image/png,iVBORw0KGgoAAAANSUhEUgAAAX4AAAAuCAYAAAAvI3K/AAAAAXNSR0IArs4c6QAAAIRlWElmTU0AKgAAAAgABQESAAMAAAABAAEAAAEaAAUAAAABAAAASgEbAAUAAAABAAAAUgEoAAMAAAABAAIAAIdpAAQAAAABAAAAWgAAAAAAAACQAAAAAQAAAJAAAAABAAOgAQADAAAAAQABAACgAgAEAAAAAQAAAX6gAwAEAAAAAQAAAC4AAAAA5e+P+QAAAAlwSFlzAAAWJQAAFiUBSVIk8AAAEz5JREFUeAHtnAl0nUUVx++XpEtoK1i6AJV9KSKyrwLSQillLagFBC2ggMIB3MCFc9AKruhxAw+ieEQQBFx6cKG0SFNkR1RoKRUQWspS2qZCS0ubNn2fvzvf/vKSvMnLCxru5HzfN8udmTv/uXNn5s68iJgzBAwBQ8AQMAQMAUPAEDAEDAFDwBAwBAwBQ8AQMAQMAUPAEDAEDAFDwBAwBAwBQ8AQMAQMAUPAEDAEDAFDwBAwBAwBQ8AQMAQMAUPAEDAEDAFDwBAwBAwBQ8AQMAQMAUPAEDAEDAFDwBAwBAwBQ8AQMAQMAUPAEDAEDIGuEAi6SqxHWninDJIGGe7KHiRvBONldbX1hNfJANlWRjj6VbIiOEXWV5u3t+nCFhkqbTIsLbdNVgeT5Y00XMHzv8R/Bfa8o8BgMzBodhlXyTL6Y6N3ITVk+F/G08l5o2wqi+S14BOyoYZmWlZDoNcRaKqlRKf8Nsr+EqCQQ/4CBn6bPBYcK6tIG0xI05pdWoOUqGtzlP4NfCNlIXIL/jN4qnO7yOmUd4MjHiwX8726q4zhPXIC9A3BEXJHV3S+aeFs+Tx5vkELG9O8g2UG/mPTcCWPJ/+Viugqrl7trVQn/Xst2H4CDKLFw0CZDN0fKtF2FRfeLgORiv0oZZiTkzyxylTeBfJMcKS8kEbVGc+0Hg8PuJwK+Vdpz858G2SsCHGthGfJOPkIYBXb5FG2kfZvBPpy/Nak+OmGh6RJdi90R7P8hfBRCPrvSTumkCbyCuFE6QtTgd+OAyWelhfm/Glk5glnyVaoZaeIwpmyTXC0vJil1uhrkDGUkCl9LU6nve6cB//dFVWeXtf2llem4UC2ce8srfv2Z7SZb6T8lLLOzCK68IVyKanfTSnqiGdah4eHPlBl/yvaUxxXgdulni53y5cYGYs9ijTStwkCfT1+iwLqD/K6Clki001JXu+gmkMUf0nORmX+jHyqOPxcuzxA3kviTPd0mTlSzhFJo7wLT+8p/ja5jD2O1j+YNn6F725RRd28ffjvpqgOyfVsb4fKiAidsj4NJdflrqtS1rK4qk19ZflE6olnh8qqiGhCsUdKvwQ+38f/HN/R5HTyF5jSrwLEtylJH4/f2hT/WjlUNpH/0FWbIOC/xbTzBRTh9mxtP0TcjSh53fJezqPmnLX8HYoZqI30JcRtw9MczpEPk7Y7+TdA/4S8KTODE3jnnDMHDJcDUfqbEv10nNQp727l1ShHpkU0yHjq3DwNh/Ii5p8n0jAe0rW8CfCxB98R8DYf/2PQzc/TqZ/dwxo+0W6ihYks6Frx+/KvdWAPCGS2TARP5WcLIl4Dn7/j34j/78EEWaF06urdXlfHTBnCZDcB/548g+HhX/Dz17K1rZL6ufFykbTIrbT2vjjjZSj0ommuqdgHvniyhd6W8nfniXYla1hADOGsSZx5ansQ/TN4JvU7NnzkAXv+SErbj746MG7Dv/nO0U7EvYhk3xxMlGddKPdyq7wBMh66Pck7Dz5mY8p6OUeicrkZOB9A+kDodJQ8hfwtZBc7Cuz3Jb7RxZeQ1QmyNJ+3O38sY3uAytaONh4X4TRKPZSyG92kpUnrOIvTnXzqfORTM3nh2ZP+ulvejXweRFXbgccQnkdp1yz4fj1lOudx+A2QSdC8l0cn6nkkP8azkyML0Vatcl9yjlgt/+Ff0DONmLiF3gFPvmMof3/8g/jO50Rzegf9pjtFT33leKzh1anyrKbMWIkvpkG7OvpGWcZ3PmFVDO0cvY6muZH4MwCUvlBuICcR1kfVXGQ8GSb/YKCeWBgAo1g9iVygZDl3J/7jcmHnxf7+HsT2yUJ8g3y9EKYuOvLdCMW/NJ7OOpiPmhxUOWRO6ebIdFpyvu+gygrB58G/5oM3nXhm4d1bw84l+EShu/lMVG9ftBd8DkOMb6C6HbTO1GWGtzTK16MQh+vlGaeGNXMoC1GArai5G8FgaTBOzqQP1ES4Fc9yJfHBEyzfRTnPkyvjdgi7NR2MIu/Q4mjbF6jjQVT1YcE0KfnIg1OSzbKA8rKFhcguhP/oytbXAFnH5DAa+V+lQXfwu4k73/qAhqGNXCNpc+ROrghMySmHFpTCXo5A6QbKSpTWGPBS2X1nGh/I4/gzeXEJ3bxa5IPU/ZsclU64J8nhcj7x16TxoRu3g5Owj3xqHi88e9JfLbQhcIvNiEXFSR90EHjeIuPkLIKJHtIxcwrScC0Uw6MMMX0aiMMj3G7+Ch/+6asnqHuMK0p5SFziHybPUt4k9InKZI/Gb1JkLd9sMPS8lBdcVl3Bh3IijY4ERLe8g+RkwpFJJ+zStpl2CmXtA3h6eJo5NRHlOi5LqOALmVNDqWSCyohDt2J3NAjx7tQ3Cz6zs4oQ1ZO5k2nJjVmwBz4f/qPi1Y6dH8S6A8owCp0tOaKsc3uZhHcEnxlUtoOrMMJmQ1R5Xd5HotwupT+OpvSpDJLNafnHeS5nDTY95qF6eVjj+rpoTgrcbjBS+lkT3sf0v623PExz/RJNSFlZRV/Arnh1dLOH3Uoz+2OdFCKlr5RFeT2WY+4Z4R3pjbHWQmF6WWIjS5G8PCiB1uHvtOxShWzpbrJCmkZVLZ/eeHr2V8zfFjk+N4DnSheOzG5T2VFOTtKRJ71wcjPhROmvxV/pdqCeIr7mzb9gzejo8hjvjD75TkriOX7TfDV6alf8QXzLInTb6VMK/ATMrBqvLuhE8YfyA1Y4Q1HVuqKb62jDaDXr/Jp1PCv2kHVeO0oolEeS+Epfd+tjLTuNkrtdkZCc7vJqfn2Wy3DKXBQnfhPehjp/SX5B+duTrvsUXREuiGkmsnKYEvu9Pz78u8Kj1ah6VWDOg5cxrLnU3POrOH2x+/Kqe3sb5IfgM8TVV0JgV7NKDp1p71ziKg2YhLWefQM5h/ouSTOXZBD43cXztWTF7INncDwmsjZkq+TMVGmxtGElz9k8WxL5ZdI/pyYU/F7y4FaSyzHVtLmJ8VFXQSj3p/Km8XNka0wGqmAEo9CpvI9y/pAUJnHa0xznn+3iRd4Pymc6/71MgPCGP1EeA0H/QcKJ4tL4z1KOTpRejnrnwOco8qoJMXXE30r8FtSoO+2OzkM+yeyHp39/KTKn0YYp8HwEz+H4JxN3Ro7xaMekEU3ybeQrsnQornMY+yEm5FB+nNKrMl4tm7PbvJo4L/4x3B1AnkgOtEAtt82NmZH4H9Aovu9zX149GL9J1pq+NZl6XM0lFL9OH4GzB6Yza8yV3u6JNjmVVvyh3IGQfSamfRPlehd+tTmOjuPSD3S6OmmFJprN05SOHlUQzOwL0819uyxKtlZ5ancPXO36iQsYcGpiGZVExFs2DYZulZjfFqdE1Xh8+KcutU/uRrmKrJqgfsoqWHdWCxDoKwlfla+zXu1li/Fb6jrM1aV9dURhJ3Y9faFK84o8L33l98FTz2QwjzyfmpNE/sGqeUpOJq5UvnsqD7EdeCGrw1Xgpe71XNkuIvea5PyhvAT1iclvP5zdPlqZLqGMoTwTobsmmEaPi3wP88S/kYZf49+EZx8elck1pH4Y5ZGZlVxC9S/4XEE/rirPQfxS6ny1PN6Fq5TPHuNZZX+lvAVMUoFcgDofn8blPXrdHIc8a+/sFyfdgjx/L/avI03Pmg6CYl/i1umCoSf8U0FIWWtcuaHcg5xeGNexBvmYgf8Q6ijsNqsdv3E5vfKpXfEnK/4iO7cQPJ0nGgaaVmnFHxYPcemZ9bkcmqu+bmtWWolpSmsK2A107rpK6zxXT1I2suJtcgNcdxkRhoHbOekhpSqOTXk+5V20b3tb3AScCOnDHerTw3idmnrThfJJiltKO6fzzbbtvVnHRplWUTH74tMTnoJYaQfyaKL0k2JQEqtRDoqzLkbGJvHuG7hV/qv4d8jFLwH/h3LhvvFWK5+9hWdn/UVrnemmgXV7NCF23f473M5+mCMKY+tCnCNW2IsIquKPXO38l5sYk11bUsNb9q1d8UvuBzVRM9ay3boYxXU8wURp6HZs8VvWykas1GVOD+XcTDvH2eR05apLgl+icKLZuoye4LyOUb0fw8Bvgodr4WUjfyOpYTdi9NaT7gA+RJraMy/E9n4VK72XK3LQW+1djtFrlJucdZWpJopvFeoLONPpfbeSWvWezKcpeoWu1nu/isol9ok8cPsGZb0zHBxGH47J96G7aZLdEHs64dKdswS5c5YkIeAGSigPo/yOZSJ7Jonu8TdeGefyRybQXISvfLKbWEL2+o2vRsx0idIPsRgE3LYrOSzGgPNPSEt/N6QTbcpPIB/gvOW77NbceR7t2oy8B+eaKn0iD/kKE39n4zfa/SVUNX1rV/zrUfyDCjzc5baPs7mS1yAfTVPaI8XP9lGVxU4uPpBdEOojEP7ZxO8L8IfH9IMJT8VidxPbLy1dJ5HopFzig82QvC3xqlevOq6T2+iotji/3hDKDiADORdaVexbwdMh+Mbh1/xT+M6k3rPifDsiNDcR9zhxI6HdDb8qXB1g9yoNeQbz6ciPtiXhh60+NLexglvXKX1n/OvVvgC+dJ3f5Oyv30c0H4GX14h5L48qfl1n78GTKf46tFcHBQPlAepRk91etOVPfH8HFrozU1PEaTyJm0z6c7T5ySSimi95tD1n5Ggng/xo6tDVvvZawfniCf0ICjiOZ9e0oAb5IPHRyjnAzPEGfZVcIfaUBy0TGZ4IHlp+ItdjKT/akelVwXa2/BPkKVd/wKQm7gqzytcDyLkqrud4dDd3Bd+teNTNwGQQgMCpvH9EWBcB6paAzEHIxiPEq4ljR/wPUd/FTJi3JoosIq36vTamPJRJ5CjGziDKPY+4E+L4Rtp4DON0Bn3iJ5+eeHr3l8h2jkc9IC85nFaCqx7gXkx8pPRDOQScj8O082fi7uaZynMAo2sG7boael0YTuNJsMcbO1/+Z7tf749xuQPZQWUD3GbRLpXz5KxhQIpnUk+V45fx9ackSy1fVS81OWbNRkRyHUBHk0jIz9LHy80KNIBmTIZ0QnRf+eFChdphawB8CDb5wJkwsuQShzQBaboC7t59LBjH4Wzs3JW5ZmyUATN5Z67E7w7Wy/WI+Vzoos7qjBYBoF2TaNd5tOu6zsjS+FDOgf7ndPgnffhn4B0Mkg+m5VT2PMPF2b0Y5MmAja4I1qO9esd4gPyTNkQHvJX5iWJDaaXNiYLqijJNA5/plH1SGlH0/IY+PSUf5Y3nbM5HGuTcfBkd/KFcBN/XaHx4F4emPvLQ4v7dxN86lFmMmEc7dKLWhYOOk+tp85lFklwolNtQ4lOZsvaH9/tzKerVCXE4+ZfhT1ezjiZEOXMQ7vweL2T6Mur5erdZ9DaZ7kI95NMbT9/+auFySBBPst01QC92NLpzmPmQZid55flycuzDPxP8pYyVuWXFaX9tQ5zyqbvmzMFPYnKsVl8xeV2VFdBzn64ca3LxCuOluJD1qKLooKnVzay6SlW3DIHUGVl/2PKii4leLGpYXb/ptvMtuXj16u8DFpNnLsB1faAbsvItxSuquBC3+i9xT7nSLaBQFhE/jePiq4NJXINrY4CV3MFZGQsuuB7amQj85S4UVMFP9K8pnnb0vvyvdT8sW0CdrTxuG1pgKmTVwq2FvNLX9Hq11/3wqJ3JKLmRUGDGKZ8oRn+3kf0Iq0jVVUht15q33EXX3B4tj/aWB2zplLG+QzlJRMjiICc73vIgyFJRppOSk6/Kz1+TAOOgnecs6vwK8cm4iZJVjvV/QI3nwFb/AWG7u2X0SpKXr/7Q6F7+3sT/UC5evQuRlufL4qoLPsttLf0BZt5FfZI/9J2HylzK+H4Csqrl0xtPz/6Cly/C+2151p0/wjIfPRdEdWHSCk4HkDArn0gZOtY2FOIIePG/wZm9FxbK0LOE1e7wXBe8+fJVr61IaKsdvwl9rd+aV/y1MtAX+VllbceQ2RvFtIzOX+A6s0LFzLrv4PbMWFY/ev1vGaLwElPOK/HkViFHfaPgZyRrurHUMgIhWQ7/akp5tbta69VeVj9bstrbFXyawWcRR5ALECCdvPul6wt5wK6/PZjqGc78ZPX3VoEZ/5J4H+p/ncXQU52Nk4Q/X/msJ55O5kNW9CWksxFz2L3w341NnDxqBtyJp4kJ7Wmk+ibG2NGEF7ND2zZpZ/KtJ/9JHfqtdvzm8/j63xaK3xcUozcEDIH+jQDKVQ+u92JxN8AtZBrcOdD5xKlOvB3FXzTL9DM4mvpZe6w5hoAhYAh0j0DgTMNbs9Yvd2uZDH5cHtnfwjXb+PsbINYeQ8AQeFsgsLrQSrXxczWW9/HcwknPZAo0/SjQcb7rR42zphgChoAhUBGBN7iNNZQrvXolQV2bvOT+vUdFYos0BAwBQ8AQMAQMAUPAEDAEDAFDwBAwBAwBQ8AQMAQMAUPAEDAEDAFDwBAwBAwBQ8AQMAQMAUPAEDAEDAFDwBAwBAwBQ8AQMAQMAUPAEDAEDAFDwBAwBAwBQ8AQMAQMAUPAEDAEDAFDwBAwBAwBQ8AQMAQMAUPAEDAEDAFDwBAwBAwBQ8AQMAQMAUPAEDAEDAFDwBAwBAwBQ8AQ+D9F4L+dOGqI0dlBHAAAAABJRU5ErkJggg==;" vertex="1" parent="1">
          <mxGeometry x="220" y="1010" width="332.17" height="40" as="geometry" />
        </mxCell>
        <mxCell id="QuH-ANf1Q-Q6EwVvL0cK-13" value="" style="shape=image;verticalLabelPosition=bottom;labelBackgroundColor=default;verticalAlign=top;aspect=fixed;imageAspect=0;image=data:image/png,iVBORw0KGgoAAAANSUhEUgAAAFoAAAAsCAYAAADl06/eAAAAAXNSR0IArs4c6QAAAIRlWElmTU0AKgAAAAgABQESAAMAAAABAAEAAAEaAAUAAAABAAAASgEbAAUAAAABAAAAUgEoAAMAAAABAAIAAIdpAAQAAAABAAAAWgAAAAAAAACQAAAAAQAAAJAAAAABAAOgAQADAAAAAQABAACgAgAEAAAAAQAAAFqgAwAEAAAAAQAAACwAAAAALdZ/TQAAAAlwSFlzAAAWJQAAFiUBSVIk8AAABEJJREFUaAXtmG1olWUYx3c0m61JrbIMRAzEnJgwNMEMhFXGxCJJxPwwFD8oURHkSxESUogf9iEImQYF0ZehoImChTjD8INuIsUYhO8vqAVOyzecbfP3P3uuce3x7NAOZx7U64L/rtf7fq7nf+7nvp9nZWUhwUAwEAwEA8FAMBAMBAPBQDAQDAQDwUAwEAwEA8HAIBnIDLL+rvKenp5XCM4ANldPUnQLfRy0ZDKZy0ksVCEMQHIV+A/kkw6SSwuZP8YkDEDgSPB3PpaTXBe69mEmzh73gjmAwFEM3gDeTyZ5B30M1IB68AaQbGULWUj9eOx54HEguQB+AivATKBt5gewn3rbhsoYV01MP9ZsoL73g73UtKOzQk0lxrtgTG+kTNtXE+gC80EVkFwFP4Kx4E1QDiQnmW+LDOaqQ02VjaiPfeRasl6p/tDUKmAywfog8KQF0W2Ko3e7mJnnzXD6CzfP5y6eNte7uk/SSfxG8E2O+MfE2nLEq4lNzBE/bdcpRA8rZND/GUOjj1K33NWeTexcDT/v6szU6tYPsw71lQUVSmChz6hpSJxT6G5LJHo0uiIV0xznwMlUvBP/EugAsr1Y/z52b21u1K/oZnyt2qvAy0fWFcFx4KBPYmvcVPA22AReBo+Bm0CiQ3clKAeKa0V2Aoly2W0BPRkcAwPJURJT1At6GNjlCle7Hte4+M/YIyxXMk0TnmjXX5/ZhNXv6cHXjyHpBl+C4ekbIFYHTPq2CKsjsdGS6AUu/gz+AZcz8zeMp61OGr8GqAfJRVCRQLbJdD+mELvfzRcyQY4xt4ldAXosfwHvcYgsAulHmlRWzpFbC3RgpUUHoMkBM5z2sadcXNc/5Xwz1dM/5khz3SOo7UnsOfSH4AMgW7KTmtZes8R/+dn9iu47DPO1xRhb0WcGqqNmli0ptB7fR6wWW4/9dmCitwet0Epgc1vO6z04T9g8yZgpxGxV38IWJIrV+NqS2TRSD/4AJjswvgUNwFZFtj/8DNDeuhnoQ8ZE9YLiy+xmsIcDX/c7/mqg/bMVmNzA0Dv9HOB7Uf5roF68tOPMtetI42t7S8s2X1Mym66eTXeW8j/1zZGbkcrncvVxo3fzrGCLvPTB6seJ5LdUjP7TJxL7e7QO17Sc771C71+Sk4CubaLV/JKvKZlNI1pxh62zlL6AX+ubw9cn++lUnXd1o82g38GIPw3oLeU2MNGbxiGg/7VkBbsRiCCTyxhLwGJw04LoTvCdjTNN7FdXk/1wsdxDpSGhEtSC12UX8+aZT4vgCpDoB59czPn7DpdiTjpUc3H6X2Pu5mLND5kvMNdrYCR4FdghqbcxfaaHFIMBiNbhOpBsLcY1bI6heI+2ue8H/VeeJv/Nkxt0KjPoEQ/QAJayPqtfBGkerrNNnXiAbjVuJRgIBoKBYCAYCAaCgWAgGAgGgoFgIBgIBoKBYOB+ZOAOqZymj3XZvTUAAAAASUVORK5CYII=;" vertex="1" parent="1">
          <mxGeometry x="367.54" y="613" width="81.81" height="40" as="geometry" />
        </mxCell>
        <mxCell id="QuH-ANf1Q-Q6EwVvL0cK-15" value="" style="shape=image;verticalLabelPosition=bottom;labelBackgroundColor=default;verticalAlign=top;aspect=fixed;imageAspect=0;image=data:image/png,iVBORw0KGgoAAAANSUhEUgAAAKgAAAAaCAYAAAAjSRfKAAAAAXNSR0IArs4c6QAAAIRlWElmTU0AKgAAAAgABQESAAMAAAABAAEAAAEaAAUAAAABAAAASgEbAAUAAAABAAAAUgEoAAMAAAABAAIAAIdpAAQAAAABAAAAWgAAAAAAAACQAAAAAQAAAJAAAAABAAOgAQADAAAAAQABAACgAgAEAAAAAQAAAKigAwAEAAAAAQAAABoAAAAACbOnNwAAAAlwSFlzAAAWJQAAFiUBSVIk8AAAAUxJREFUeAHt1k9Og0AYh+FvHPQWbrqwC49h3NV4Bk9RjQk1hsQS79AuvICm7tpruGgXHoRCKJhMFOICRoaa6ctmIGH+fA+/zCDChQACCCCAAAIIIIAAAggggAACCCCAAAII7EfgNbo/fX+6Hbie/cj1BIzvp4A+1mcSnKwXz+HMZVAJqJ/56acqJYFScuMyqAS0n0/p9ywOg0pA/Y5Ov9U5CKoqKyj+Ix6KrXrSbzXM5r1ALmku8qLSJBrdTT9t6mUHtVGjTzOB7x314y0OL5t1qr5FQKsePHUpUO6gucwlTc6vx49Lm6G/jnibjvQ5bIFFHF4oLatfFTo42s24gbmhReDPAj+CeWX5z1lfAwGti/DcXsBBMM0iCKiRoG0v4DCYZjEE1EjQthLIttkm0Nmwq6O81eS8jAACCCCAAAIIIIAAAggggAAC/1BgB4u9W2MBewTzAAAAAElFTkSuQmCC;rotation=30;" vertex="1" parent="1">
          <mxGeometry x="299.37" y="174.79" width="108.52" height="16.8" as="geometry" />
        </mxCell>
        <mxCell id="QuH-ANf1Q-Q6EwVvL0cK-16" value="" style="endArrow=classic;html=1;rounded=0;strokeColor=#C73500;fillColor=#fa6800;endFill=1;" edge="1" parent="1">
          <mxGeometry width="50" height="50" relative="1" as="geometry">
            <mxPoint x="424" y="340" as="sourcePoint" />
            <mxPoint x="424" y="490" as="targetPoint" />
          </mxGeometry>
        </mxCell>
        <mxCell id="QuH-ANf1Q-Q6EwVvL0cK-18" value="" style="shape=image;verticalLabelPosition=bottom;labelBackgroundColor=default;verticalAlign=top;aspect=fixed;imageAspect=0;image=data:image/png,iVBORw0KGgoAAAANSUhEUgAAAEIAAABQCAYAAACtSqN4AAAAAXNSR0IArs4c6QAAAIRlWElmTU0AKgAAAAgABQESAAMAAAABAAEAAAEaAAUAAAABAAAASgEbAAUAAAABAAAAUgEoAAMAAAABAAIAAIdpAAQAAAABAAAAWgAAAAAAAACQAAAAAQAAAJAAAAABAAOgAQADAAAAAQABAACgAgAEAAAAAQAAAEKgAwAEAAAAAQAAAFAAAAAA4LWkYAAAAAlwSFlzAAAWJQAAFiUBSVIk8AAAApxJREFUeAHtmL1rFEEYxtecH1EwQUQQRQQNEgM2FjZ2aWIjaCGSxsZe0D9AzjrY2IiFVuki1mK6FCKSkBBBVISoHOEU8ePUO+NH4u+VGVjmZre6Q3d4Fh5m53nf3dvnt5tlNlmmTQREQAREQAREQAREQAREQAREQAREQAREQAREQAREQAT+VwKb+nlhG1lm5z+Mtga/06DQCry/U445xM5gUGvS/yHwqjMl1DW0EVELrxYmwbsc6bXj19Bw2N/L+UAvTxY510u8RuC/Zb6A1gPfpivoTeC3mS+jtcCv3pS7eRPZnV1Hp8sSUN+M5pD1f0GjZf2VqhFmG3qMLNxHZO+B6EZtyvVZ7/loU5VNQh1E713IRcbwhZjhnXV1g3CjynlLr51wp9BvF/Z2vhlvBH1ytUeMW/L15PYJWHdh7a5ftICM29GS8+2pOZBc8DAQIQfQfRe6w3gc3XFze1omwmOSnRN2N3rtwtuT4VVPNnRRMMKfQD9zEB6w3+91TdHl/Lsf5oqeI1ss+e0Jy+jYIsvX0xy5+/dyT4P9afxC42mmLUhF4Cs5CFfZf+rm7xj3FxyWlk3Qk8i/G+5aOuZHkS2n7cl4iJJfQ+whZMMFfsE45G8z++ecbzCSXlXa+mHWhW0zHvMQ/Ih33dUNxqT3kxoJlv/fxIVYOHryX55fmY/F+irrEWgC+W+MW2VB6NuLVpE9Fc/QzrL+StQIUUNHkP/qfMX+PrSjKAC1XegMMhCmGVRtGASYd2F8KD/amqHrmwJvuqDfjrtUBK8Xfr+XtM2Ci+zgf4/UPuORuWv7gfOty5UhAiIgAiIgAiIgAiIgAiIgAiIgAiIgAiIgAiIgAiIgAiIgAiIgAiIgAiIgAiIgAiIgAiIgAiLQEwJ/AI5ZOEZwPUZHAAAAAElFTkSuQmCC;" vertex="1" parent="1">
          <mxGeometry x="404" y="480" width="41.25" height="50" as="geometry" />
        </mxCell>
        <mxCell id="QuH-ANf1Q-Q6EwVvL0cK-21" value="" style="endArrow=classic;html=1;rounded=0;entryX=0.275;entryY=0.058;entryDx=0;entryDy=0;entryPerimeter=0;strokeColor=#009900;" edge="1" parent="1">
          <mxGeometry width="50" height="50" relative="1" as="geometry">
            <mxPoint x="391" y="337" as="sourcePoint" />
            <mxPoint x="391" y="505.97399999999993" as="targetPoint" />
          </mxGeometry>
        </mxCell>
        <mxCell id="QuH-ANf1Q-Q6EwVvL0cK-22" value="" style="endArrow=classic;html=1;rounded=0;strokeColor=#009900;" edge="1" parent="1">
          <mxGeometry width="50" height="50" relative="1" as="geometry">
            <mxPoint x="394" y="682" as="sourcePoint" />
            <mxPoint x="394" y="762" as="targetPoint" />
          </mxGeometry>
        </mxCell>
        <mxCell id="QuH-ANf1Q-Q6EwVvL0cK-23" value="" style="shape=image;verticalLabelPosition=bottom;labelBackgroundColor=default;verticalAlign=top;aspect=fixed;imageAspect=0;image=data:image/png,iVBORw0KGgoAAAANSUhEUgAAAGAAAAAmCAYAAAA7mZ5JAAAAAXNSR0IArs4c6QAAAIRlWElmTU0AKgAAAAgABQESAAMAAAABAAEAAAEaAAUAAAABAAAASgEbAAUAAAABAAAAUgEoAAMAAAABAAIAAIdpAAQAAAABAAAAWgAAAAAAAACQAAAAAQAAAJAAAAABAAOgAQADAAAAAQABAACgAgAEAAAAAQAAAGCgAwAEAAAAAQAAACYAAAAAbLgTMgAAAAlwSFlzAAAWJQAAFiUBSVIk8AAABfZJREFUaAXtlmtsVEUUx8+5l+0uBbeFCIICEQsVQwItxVRaQUiQopVdIg8TDSEx8RHFLhTRkJC4BhMfSFsaEXxiECWiH7otgnzgkahAkNISIh8EA2mwxmgoWB5le+8c/3O3CwsJCfQuCYkzyZ3nOWdmfnPm3CEyyRAwBAwBQ8AQMAQMAUPAEDAEDAFDwBD4PxHgW73Z+JaxOQNGF6wk4nvSc10457yyfPL3Hem2LutbIs8IcwUJWV4/y2exosbdmTK3Q72uNbKIxSolEibFtbGShmY/6+rjR/lGdMMFBSOYrdcyZYN38OtoX3UAgL+UiYsp7RLCByFz2x0AC7/BTHfCoci16Dus0dcBpLwtk06W69UljccdckpFpFKE/r6ueUfN1jK4AZuvK3MbDDjcXS4kO7O1FF83YE1L9FVijsJpCwEuKCz7UG7tSCTWxeOk0ousLtp6QNfXtMz+B8WgdH9mGZvY1IZ2W11rtNS6fA0yJVL11a2PF/aRnKXMMgU9+YgEP5KSL6tKEk11hyJTLOY34Z25xHLJcejl6omJI7UtkXLYXIkb1g+BI6kcN7ZkYtMhLY/buQKy41jIxbRH4CT1seLEtvTM9fsfG0bB4Htol0EujP0dhdyI9Ljf0s8BYD/0FuAHvUWggo6ZyGbmR6NC8cSHfhd3rX4P/D0IAUP1bD3zzhOb5yA2LwTE4XCIqekBy6IZtc2VDq75dGaepvu1lm1x6ZrW6His9/O0bI+5u2G7ArYWLC5q3LT6QHS45HArdAZmyJWn6tnJ/YQgEVfNFaIX4DxP4Vo+Ce/4Vi8Lm5icneVdbaWPBNZr+AhVRzHfs44j41D/FIAsS6wvul35BB68xdNS8pHFVGrbgaMYHkkiDbof8l9dzKVNOKwPvDbRVlc5ZeS6k6Cb0H34ydbED87KDeTQKg0fOieVqOddUU9geJeWyVbycwO0K43GjuLMdthbkHYvnRCOUpXs5RoIvLRMW1SuWqBDSI/15xDaynEwDwRsKtchEHLzEWoKmQSvFfg5S0SIf/WWx6ox5wJeMRbClJfkQYvtryGv5UIpeRqUZ8l4ONdUrYPDWhab0Kh/uFSzt2KfnRtqh9Ws7LHXN6CuOVqBuFqDqw348BERxHf40C1KebY9WG8aEyTPdnb+ljkNQP+l24A8ONnt/qTrXsjhNGQeAJAPe/1dzl4cYUDXdYLNuyB7r/7QGqL7dGJlDcOLB68dpGRyv1ciqy7bcRr/nVPptt+y1wfANq/wJhfZqLpkaNd5uQ/v4rV+F3Q9/SXFDSdxyG0AmTMwL//tdw5Oz5u3hez6Q9G5oPiI1kOIOLCstOkE/KA9bQc6ZzLqbVUPbT9lJ50j6T6l5N1u5RThVo3XpeuqOdBZdKmLfsBhewetgoGlNXsn9YUO1zdHZ+G2FaT1/ZbYT+8Srn0DFhKF250FgN8Rk++HN/VLWcMWiFpjRYkSvJQ+Rv9C9OvHje2N6xdHqnLi9LHjYwcUjqqEt21AV//LMnoccnhZdQFOZElJ0676ltmLMV7rqZJ0YZJz8FzPSzH/Tsz3qNbC2r7B2uZrfUXuJITI/diohfbmquKGp7U+fsIbsa4Fug47eB7LMVybMZDzfrjKlZkISSPZstZpGaRzkMF35ZZglw76l+PV9L4n0Yus1zeAyFmGle/BnP3xTdDwr3gbto94EI8DF1Ff5IGrwOqDwAcRCQ8L26y8g9ExPnVAUPKSbgMik+WFDMCrUyQvAtifABHS8AH+PObdwO3JSujg3L3cC0No7Fxc3PQLYvgO3a1YIfykUkfH2Zegt9azzzQItso0fOgk0b8t6XYfRtxfL0qWY58XoIV98hCMK8x/UVvBntGUy+EsZfnmcg3IV1r184zBgb6hMcJWmw4TvozdhHJNc2SUTVZex79nDsen7dGe2Ku0aseMfsGBoULXViFL8R8dnZ3t19qL754ayg+HC9ni/izJY1UTtuPGmGQIGAKGgCFgCBgChoAhYAgYAoaAIWAIGAKGgCFgCBgChoAhYAgYAobAjRH4D5//N10jILaiAAAAAElFTkSuQmCC;" vertex="1" parent="1">
          <mxGeometry x="390" y="710" width="75.79" height="30" as="geometry" />
        </mxCell>
        <mxCell id="QuH-ANf1Q-Q6EwVvL0cK-25" value="&lt;font color=&quot;#ff0000&quot; style=&quot;font-size: 17px;&quot; face=&quot;Courier New&quot;&gt;&lt;br&gt;&lt;/font&gt;&lt;p style=&quot;margin-top: 0pt; margin-bottom: 0pt; margin-left: 0in; direction: ltr; unicode-bidi: embed; font-size: 17px;&quot;&gt;&lt;font style=&quot;font-size: 17px;&quot; face=&quot;Courier New&quot;&gt;&lt;font color=&quot;#009900&quot;&gt;&lt;b&gt;curl&lt;/b&gt;&lt;/font&gt;/7.7.2&lt;br&gt;(powerpc-apple-darwin6.0) libcurl 7.7.2 (OpenSSL 0.9.6b)&lt;/font&gt;&lt;/p&gt;&lt;font style=&quot;font-size: 17px;&quot; face=&quot;Courier New&quot;&gt;&lt;br&gt;&lt;/font&gt;" style="text;strokeColor=none;align=center;fillColor=none;html=1;verticalAlign=middle;whiteSpace=wrap;rounded=0;" vertex="1" parent="1">
          <mxGeometry x="185.59" y="360" width="180" height="100" as="geometry" />
        </mxCell>
        <mxCell id="QuH-ANf1Q-Q6EwVvL0cK-26" value="&lt;br/&gt;&lt;br/&gt;&lt;br/&gt;&lt;br/&gt;&lt;br/&gt;&lt;br/&gt;&lt;p style=&quot;margin-top: 0pt; margin-bottom: 0pt; margin-left: 0in; direction: ltr; unicode-bidi: embed; word-break: normal; font-size: 18px;&quot;&gt;&lt;font style=&quot;font-size: 18px;&quot; face=&quot;Courier New&quot;&gt;Mozilla/5.0 (Windows NT 10.0; Win64; x64; rv:99.0) Gecko/20100101 &lt;span style=&quot;color: red; font-weight: bold;&quot;&gt;Firefox&lt;/span&gt;&lt;span style=&quot;color: rgb(206, 145, 120);&quot;&gt;/99.0&lt;/span&gt;&lt;/font&gt;&lt;/p&gt;&lt;br/&gt;&lt;br/&gt;" style="text;strokeColor=none;align=center;fillColor=none;html=1;verticalAlign=middle;whiteSpace=wrap;rounded=0;" vertex="1" parent="1">
          <mxGeometry x="445.25" y="334" width="180" height="100" as="geometry" />
        </mxCell>
        <mxCell id="QuH-ANf1Q-Q6EwVvL0cK-27" value="" style="shape=image;verticalLabelPosition=bottom;labelBackgroundColor=default;verticalAlign=top;aspect=fixed;imageAspect=0;image=data:image/png,iVBORw0KGgoAAAANSUhEUgAAALAAAAAuCAYAAACI25NtAAAAAXNSR0IArs4c6QAAAIRlWElmTU0AKgAAAAgABQESAAMAAAABAAEAAAEaAAUAAAABAAAASgEbAAUAAAABAAAAUgEoAAMAAAABAAIAAIdpAAQAAAABAAAAWgAAAAAAAACQAAAAAQAAAJAAAAABAAOgAQADAAAAAQABAACgAgAEAAAAAQAAALCgAwAEAAAAAQAAAC4AAAAArFNvkgAAAAlwSFlzAAAWJQAAFiUBSVIk8AAAB5ZJREFUeAHtmHuoFVUUxu/VJE0zNVNT1LTMR4kV5aOErqGUWRlpSJmhJVJphQllhGL0IM3KsEIKokL/sKf0sLI0TRIsemp6LYWulY9Mi0zzlbffN3f2ZZ9x5pw55+g9N1kLvrPXXnuttdd8M7Nn71NWZmIMGAPGgDFgDBgDxoAxYAwYA8aAMWAMGAPGgDFgDBgDxoAxYAwYA8aAMWAMGAPGgDFgDBgDxsDxw0B5XV1KdXW15uoN2oRzbi4vL/+hrua3eY5PBk4o5rJ4KEcT3xZUx+Txbf8yrrme9PyWog/2+v8blevWtUwDeikf4kU8eDSKD/NeTa4uwPGn9hB4lnmcjW7hcqzqL7yiEkVCRFrZh+OUiPPHJSq76Gm5jgHetQwsOmGYgJzDvbxR9fKjOM8xqf9o1ZdPngb5OBfpO5f4YWBPkXnqQ3grrwhf98wFqVuJOpwQeVuCvRCzX7OvF5KrpDFF7YG1RITVv0d7L1gCOoAN4DowBwwB+/n8NaYtI2QTTVewBSwAPYC2GN+C+fhtpA0EX9U3HHSvsQS/r/HbCYwCZ4APgeJ+pw2EONUwBmjPrRu0HnwF3sDvH9pawbcFnaGgH1DepkC+i8Eq/FVbIPhq66Druh6MDIxlZW/Sfh7qan4Dr/hx3lhOlTna4tQH6Lp80TaiM3nFW4YQ0xDDjeBC0A3sB1VAZwwtUguJ21Fo/cQ1I8elYBA4F6wDy8AK8u6mDQS/gu6Xi6/zloKdPK/J6awNDZ+F/ZfD/j5XHP1NoS2u+QNj7ScZ/eI4pxjbLmwtwzknou+O8ZFJc/d1tYT+GxJ8Za4EesADQR8mYwrRC1GwkH96whzTo0nx6wa+TPB35scVRyfv+onpDDaCOKnCeJarCT3v++ViC22L3UJsDifW2x4nzu784nx8mx4WreROtNpoNckleni7Q+Ao2meAVow46YpxIX5aZeNEq62/xdHKP85zVD1aCbOJXtbt2RyyjVGbVtPxoc9hWq18aiXjw/Ggg94IZSG4IDDU/DhfzxR8FdXPq37ydyZmJThTwaHUfpHodwKf4nd2OJbX/QpjStdQeG8wBpysKmijK/Ap2G4GvVyV6P4K/BJ9+XQGepslWj31KQoEvTm4Afiyh84k0BU8DKaBBmAdcPIOSi/QFAwCW4GTaV5+5RgHdMi8HSjvPOBknvNVi7El0Crv5C4U5XAItkp+TD46ea5yiWnfDefUtTjRvxSBYBjtjLSbga6zHHQE4sXJfC8mdf0EP+gS0H4BtCUTB+J1NXBS++8ShtT3y9VUb1qKz3iA4wrDxz3AwTbD+WB/ETjRKlQrGPu5AVp91rUPyxBs7T2fXKr27IHgqFVte5aAYHvk/NXi63+Kr/HHitXJ/XakljWRvl/7HG9skD83dj3I7iHLOABiT1W/F6+tXZtI/tOxHQKStZGxnPfL9y9G16GkVJJxmKKIAykLmcXBIYOwMO6klPFy06dPD+JYmhek1wehno7UcWWklujLegV+OsxpexZcR+ifsSAwjlv1AMZaoO+K5Ezb7Rk6biSHDqe1Ql9ftG0YdGDWQTlJku5Xkn9e9lI+wHkVmsL5J3y0/3Sf8I/QfwRxotO5xN9vr6D/FqgE2lM+CtJIE9+Jm6r9dSdu8HrfnlK/FT/39VHtO724YJ9PX+eWCeAB4F+fvgSvA190fy+ipgPU84k/4OnZ6l+N32BwHjkqyLHcxdHXy9E67OtlKokU/QBzIfrbZyJoB9xmvg92fXr/BDO58J30RdRUoIOUpAe2KYw9QXsL/ZGBteZnNrYZqPK9CQR7L1qJ9p/9a9SyvbRPkaMK6HO2jL5bwbRy6QavAVoheoJzgA4kzwGJv3IspX8QjAY6DDoZSt7pdB5hDneA8b8WkxnXtYuHS0Bf0Bjb/fg/hp5T8NVDORnc4TnrBZhBjq8ZV93izv2dOAHbPvqrgJP52IbQkU11anUeC7qBw4x1IJdWTEmq+vFbDPQA6zlZQo55tFvBaUC1nggk7+uH8fNpUt0v+dcLoeipIJtMUqE4jEhw6ptgvxv7BwljvnmWIwKjDi/6Sy2XfBPWtCCXozde4c3TGvtebyxOne38c7UEJ/39tEixjL8aNwE27TWTxvyQ3XROdXWgp6ofvyZgEcgmukf66qjOvO6Xq6ekLUVfBv4CcfIrxoHhxemUHj0sfYdNp+KVwBftryrAfeCgPxDRd9Af4RNAvwvwT+1+iHItBxVhTS3QF/sOoR6tU/8Vd4jMcy02rY5R+QXDTNDc98+m49sKVAFfxOk9YZ13oh/wB9ErQVug1f5pkPRCLWOsf3R+bKnqx68h0FdyG/BFHM0FjVxu9Lzvl4sttC0vNLC+x0Gm9ow9QDuwA/wMtvAZ1TYhQ/DVZ7Y90P5T+87v8TtEm1OI1We9F9BBaR1xmqvOhTqaMam2cNqXagvxN6iiHrdtoHuk5FM/vsqva60kb+WR2cxiDBgDxoAxYAwYA8aAMWAMGAPGgDFgDBgDxoAxYAwYA8aAMWAMGAPGgDFgDBgDxoAxYAwYA8aAMWAMGAPGgDFgDBgDxoAxYAwYA8aAMWAMGAPGgDFgDBgDxsAxZeA/42OsohM/RoUAAAAASUVORK5CYII=;" vertex="1" parent="1">
          <mxGeometry x="142.61" y="50" width="114.78" height="30" as="geometry" />
        </mxCell>
        <mxCell id="QuH-ANf1Q-Q6EwVvL0cK-28" value="" style="shape=image;verticalLabelPosition=bottom;labelBackgroundColor=default;verticalAlign=top;aspect=fixed;imageAspect=0;image=data:image/png,iVBORw0KGgoAAAANSUhEUgAAAKQAAAAuCAYAAACmnrL/AAAAAXNSR0IArs4c6QAAAIRlWElmTU0AKgAAAAgABQESAAMAAAABAAEAAAEaAAUAAAABAAAASgEbAAUAAAABAAAAUgEoAAMAAAABAAIAAIdpAAQAAAABAAAAWgAAAAAAAACQAAAAAQAAAJAAAAABAAOgAQADAAAAAQABAACgAgAEAAAAAQAAAKSgAwAEAAAAAQAAAC4AAAAAyArRIAAAAAlwSFlzAAAWJQAAFiUBSVIk8AAACjhJREFUeAHtWX1wlMUZ/+17uQshoVAIoPIhiIIiELQFpVPlS4cJkLt8YGqxlrFOqSPaodYqllKpM3Uq/cMRp7ZOp4PKdLQ3kOSSkFRpK+AMtNoRiEKnoAICIwTkUxKSu3u3v919udzlLsyEC0bt7sx77+6zzz77vL999nme3QNssQhYBCwCFgGLgEXAImARsAhYBCwCFgGLgEXAImARsAhYBCwCFgGLgEXAImARsAhYBCwCFgGLgEXAIvBFQ6Bq9iCsK7n+i6BWTo8qUV08BtI/BY4YDhfNkNHNiMfPAmdaUbmttUfn+jIKqy4thUC1Vt2Vi1AeeaVXPuPFkr4oFDPhOLMAOYs6FUGIWupS2iv6JE3aMwYZhg/+0LOAeBAO66o4fGQgzrcL0WcPWxMU+f+6uDIHPuFBwHpvlSG+JhrhGDP9BX16S5nUeZXZZF/8wSe5wx7mRxpjhDyvhaq2gJ+GeiPWzOiT/URfdgmxdyHxqH4Q39Z7XyMDZm55hl7DrFXvKZMyc8/sUiEWex+4G3H3XlTUbcf6eaPh+F+lQU7Vfflt6VsxXDwYgcDN9KHj6EnbEMeHONz+FoaJK1DRcCBFU9WomjcBTs4k8hdyA+xCtHU7Kl8/kcKnvHUgNB5SBCBkM9xYfwj/LaznwnV3obxuC/llyhjVqC4dAOlOgXBG810AKbfivbq3sZKzdS4q5A0S4+BzzIaOHt2tWQJDZnLcNQwP9Sir2Z8yLFxCPHxfJ22Tpseccyn9mRqri3MxPOdWfutkytyJg23b8OPGtkys3aK1ujejjxyGps92oaj/y1yjhd0YL1A19zo0NXyQEZtuCMrEmm4kmbguRjMGQHAFF1w+zbxoeYK9av40GtBWLv8nXKCrEnQd4kt/yvZKgpGXoCdXXLcC5bVVmqRyUwRWc2HmJrNQbpzt59AcX4Ef1bUY3tJ/U+Y3OvgkjU90fKfEZsizlP33TxM8NaFVNOBHOM7z8Bd65HGa4/P8pqcuUBC+oz8C+Qcps1+CBvksdSnjNKMMTc2JtSiNLNLt6tIVlN0hQxGl/AvKInfr/vQfgZrQM9TpoVR86M0k/oidkaU9ZgzVoT9T74WUG+EaXTyHXDkjB0UDVLi/gR/wX+w4PQErN8XS1b90itnhlz4eqKRRSLFZixBiGT3NS6gOfg/h4LUor9/GD6XXaJ+RMoUO8XimA2xpjCmZSTg36eb6OVdCBDanGKNEu+4zKcEjGCJWJ4YKFYaSC41RGa70PJ3AdIiCTsYhJlAXY4xatjxpJIhCHtB+ReP4VkLiybwo6528lPhJhzEqTrUBxPcRnjPQjHNVaEz3yqYz9XclY0VN6EWO/1kSPp43FX0o+mFMDr0Ctak/7zK+YCgjjXcaZ4QY37ewp1XI3iC1RrEVXPATBNDhs4hhby0Czl4Ce5jrcCeaWj5KKK4MVYgnTFs2IcbwURrJh9sylIu2JMFHd6vrvj6/5uIM8/h/R56R2FmTp8dBbtd04dzPuW7T9dLILPL8zfDzV7qrED3aDy3RQuq40dB5wkwure597FvA8D4ZbtsYtMupiMlbOdjkV1KYtEONUZ74qHs1ZOyWZBHkPQ4ZXwj3bCFVf4LPQ4l0oqz2ObSfL0Q8OiZFt1QBpjUxWMzv/aFpyL8i3j6K+BRw3Eg+Gwxd3IOc4F2Zhl9WWmX9YX7X41zTt6jLMlQ2HOnp+XJ6RGBZ/dvMK6YxV1tGbzmPRjnEyBVX0UR/TjfPxcVsTfM73+Y7hwbAcNtejgWNH2p6+RvNfL+A6tDtXJAF/OALSX+J7jc/Eyl/LYq8yCJBj5HoVeGcQOliPK6UNSirfdyjtaIqVM/NcCfbgzyaefVlvglJvX2VVC0/zfdImXogU0YZLt6HgAefyjfd9u+govGQJ/c3KfJVw+S6JxhBziTpnMbGUzgNkkViL6LN5YnrstLIQawursCI3MMcP4jfMYdcr2nez/OnvPa3nE49l6Vk7yFV6KgJzUUsx+VO/gHzkKHaEyhvAfkvrbXALKwLmhAsPZcv5Mco84wx+dNUXnWubSDK6hq9sJRkPOJ2LgZDbuJhLuMVKcZeqCbeAl6o8yhCph9Q1GEDeIeb4D4++Ymx3aqI5UnG2K2RGZg9z+tuSRjjBSZ9oJGv66a6O/wKluwNMqdEhZgN8IuNUEmvKhUbPqJBvYr2c2oXm+JzpuuKg30e5Up6mcFePfXV5pf6msjkp3s7OuUfGC5eyPgADR183agFnBXUn+mCKrKWJ/HF9E7Me7mhJDoOPobh8v9K8a6eRIjpCM9gqE4q4Wl53IzGECX+k9TzlalmH7KFT3kYrqkYxSuEjaguWYW4/AA5vimk3qu6dHHl+15tq3kzQffnNtK7LofL65uYiMGfN5LGdjfD/FLIAQfIdz2fN/gY7yfBaxP3ZYbHHXDyaETxG5iv3kjDYV4q92i564KTGNav4MKpMoLyJ9Jzvwd1VSPEdZoK5CbokldOilfdBMjYct4KnKb+3+SVzgOkGu8sxE2oml/EQ9pOhs1chk2VdjAf9IqQd6AqaDaXFCcRj7ypD3uqWx1SJpZM5dwjPO6rzVuM5pi7TF1+yuuoN1mX3AgNTB0WE9Br4R/wD4b4xyBbdlPlsfxnhakA73R1kY3mfQm/4fnD4PNRJ17OC1yjJQjmqEofKSREtAnlDQbPzuJrQiXUkmkPD7JlNes7d2fbNsuWjZSq4AME6vcXFSHlJl5xzEzwVAd5wnYeS7QzVSQO8YNH4k/BAgx0thO4DgPIzB8mwLx0FvvI60uwSJxG9NRwBPqrxVySRI/y+ocn+H5Lyf+LBL2rioThdwoepZxlXbFpuut+l1dWr+m6WmTHCV+UX3fKIDdOnTbgotDzNOAHux4j1/DKZfElX7nUhI7xG7o+IUt5CjtPD06Tr/7zFv0+IV5+GqWL1vhQLKw73rWe3e/JPmTHxBZu7I/p2XbwfSRVBV51SLkW5+U9KfSy2mU8rT3JvlMpdNUwVzQRXhXN1q37a88i2jaNHWv4yDR+dRKWqKd3exonTx+jUSaHePLLXcCxdo7bQT71ZtFydiDW0oLmg0+x+VKabIkDGvTO/NJtIq85feu+zj/yML34gQRV8LZB3UBctBA/YL9mURfxZZElTB3oGalDSlE445c6V8/m/k+Kd1LEJjeUoQn8M80YFc+hwGf8NVdiQp7jrYSHZ7KA7OrZe8jk+VUOOSmfYdE3nB7wBE64e6AMqqui/k7s97WxBGAEnzjHHKPX2p9yaZ08VuVU/gHjuFjDaBTNDK0HgfojifCYzNvderhkJMM0w6LrIOocQmVE5WgZNkB3BWfJr/USE4HY+xn/vcpSfLeHGy95G9OIrTA3I90WYQdYBCwCFgGLgEXAImARsAhYBCwCFgGLgEXAImARsAhYBCwCFgGLgEXAImARsAhYBCwCFgGLgEXAImARsAhYBCwCFgGLgEXAImARsAhYBCwCFgGLgEXAImAR6GUE/gcv9GW44zqFNQAAAABJRU5ErkJggg==;" vertex="1" parent="1">
          <mxGeometry x="324.09" y="10" width="164" height="46" as="geometry" />
        </mxCell>
        <mxCell id="QuH-ANf1Q-Q6EwVvL0cK-29" value="" style="shape=image;verticalLabelPosition=bottom;labelBackgroundColor=default;verticalAlign=top;aspect=fixed;imageAspect=0;image=data:image/png,iVBORw0KGgoAAAANSUhEUgAAAWQAAAAsCAYAAABSZ8KVAAAAAXNSR0IArs4c6QAAAIRlWElmTU0AKgAAAAgABQESAAMAAAABAAEAAAEaAAUAAAABAAAASgEbAAUAAAABAAAAUgEoAAMAAAABAAIAAIdpAAQAAAABAAAAWgAAAAAAAACQAAAAAQAAAJAAAAABAAOgAQADAAAAAQABAACgAgAEAAAAAQAAAWSgAwAEAAAAAQAAACwAAAAAulKavQAAAAlwSFlzAAAWJQAAFiUBSVIk8AAADhhJREFUeAHtmwvQVVUVx/kQBTQfNJmFKG8J88WQ71FRHompiJIlTY9hNBUfWONoWUIK4ZRMpKOllIyM5musKEpEiglIEiQ184mSgyBY4ltQUaHf/3x73dnf4d57zrkf98KHa838Wfux9tpr/8/e++6zz0e7di7OgDPgDDgDzoAz4Aw4A86AM+AMOAPOgDPgDDgDzoAz4Aw4A86AM+AMOAPOgDPgDDgDzoAz4Aw4A86AM+AMOAPOgDPgDDgDzoAz4Aw4A86AM+AMOAPOgDPgDDgDzoAz4Aw4A86AM+AMtHkGmtr8CLbTAWzatOkwhrYbWN/U1LRoWxomsfUhnh4hpleJ79FtKT6PxRloqwxskQ2ZBdodAoYE7IFeCf4CdgIbwL0s2o1ol5wMwOl6TDsH8x3h78OcTetqRlxD6eCBqJPVxLZ3lM+VxM8ADI8BO4QGm4Jei34MPIlfKwtVtSn6OpKW3wS34fPB2ry0nVZtcbzE3AmGTwXdgJ675rv2kLfBSWAXoPJ14B6e45vohkib4pNgLwRZcmhDmNuOOoHQ9RGpHbaVoRHTSVFcSr5UNDbatAdvq3EVWUTdAUV9l7PHz5zQjxb4di9tcbzEPCY8o1gtJTMrLgjp8Y18iPTZsPnTvjUDI9CzaX99yke5k3DhE1TK58cxezGDvhSM5TSg08K2IrMJ5ASwrNaAGI/myKqM9jrVzmOOdcuwy1P9yWBkOk+btmxj4zTdFsbyX4JM7x2rKSv3g/9ygwdkPJquW/c1n7xYKLqauAnYtceNpCeBV8AgoLo+YDOhbX8KtaiPA2q/APyVhfoUuh31e6JGgi5A1x7qS6clLeI7wWlAvpeG/AvoM0BXINGD1CvQUUBlLwLZ3kof76MToZ8eJE4Geh2SrAEzwXlAG8LrYAZYQDu9LiWypePH95OR7xGkP2d59G70txc2mrBlhfoTqRgOeoL2QDxpw3wXzKCtrj9Kgr24PRbsB/Tq9xiYi91md8HY6krha+AI0BsojsVAXKl9rXIgDZeAAUCLbhjYFYj374B9gebBteAskAjxKA7Frvmg+rfAHDCb+BVTSbDtR0bc2DzsTdnlJYPmDeA+2sX85/ZvfvCp5zUKfB50Af8Dj4OPwNP4vx9dEuxHkqnKPzaa85rTnwoN9UzVpgd4GSwE0/G9EZ0IbQqPVw3zxBPseqALrxe1zRLG8Wfi0CHkhmA7mrI7KdP+cDeYF8qnUD4tpBOFTX8SFfeT2FZp7HOtF+xq4jPdX0PyBHsKMLkl3SkVQ60SrY0xEdI/iMrTyckyovDGdEWVvF7tr65SH1c9TUYbQSKkZ8eVIb26TNmEqE094t9f/un30DJ9q0h3aGWFujsqtLFibaaJUNANLLCKlN5I/gagBWD23ck/BKpJuROMuaiqcaprCcm/Y0PyBwK70viI9F6qR58FKoniH5vy80gl46hcPy6JUFbIvxrR5vvg/chfOvkhBbsH29z80ybPnJ6LnX6AEyFddLy541EH+C+8Xpojy/cv/uNri8OtFeV7A5PxVi5NYeZ6TNkXWS+F+Iz7qTVdepg1OBgUtZkepS2p+7pLwDiQTHrIu4r0JGCiU2fp5Elak3sKerkZ5NCdsekJYj+VmukkM5M+dBKTrGhWLf79bItcc0anNj38esWv05VEJzydanMJ8WijLp0eSYuDD1KNk/FgK57+CPQhrZw0UXgBSDY17HUyvguUFgZpnfjqLpyAtEH/InSkOarnVk7eodBOiIp/MnFLm/zHElV0NZuq/ulLJ1gdInYK/tPzWcXica+i/NNmhRpnyBDqT4tsqo3FzBKbGuJR+3IxVVwv1mGN+hJivEqg/RXlfIS6PPtJ0hz73Osl9Jebz3LxNbSMwd0LJDqhdsjqHJvO4F0g0anhUtARqFzkbwAS1XUBqje5jcQwy6B12d83yutktyd4JipbRnog6ACOASuByWUWLwX7gsVWEbTuLg8Cp4KbgE6udY0/imdX+uoFxgETTaTNhMoLzAD9GjgH9AdnAju1fUUNQxkqEXH9VbAH6A6mAhOdTHcGo60A/RIYDJrA/kD8m2zxE3KI93TrAG1j0LPUR0XNl4uAxi9tYyW56TNGFOn2oAfQXJAsB+LW0NVsQ59F/T8np0H0Vrc70Jw+GrwATPqQ0DMxyeQ/xHOuNUDr+WoN7AjGAhNtWIlQkHu82BaOR53QLtd6aY6o2L/4HgOyZHyIo9B6DG1yr5dgn5vPYiOtgzWsxRty5kkb++ER08nVRBwWdZrQJqNInG0ZtDbEAVH+PNKamCbJvROZxVaAPjTlP27/21SdvYptpN1EoFNNC6Gs7vHHHdLfCGBSaUM+DAPFnJZ1FKwByUYmv6SnpY2q5MX3dVH90FRsetVdH+rrtSHrB8PENuR9KPiDFVbQLTbZMPaHg+0j8TjSaWxy+8e2S9T//DK+TqH+I7AK7AAK8R/iPoN2Jrp3ToSCuG/dsbcQ6jPHi03heKwT2mauF7MtovFbZEMutB4VB/5zr5c4btpl8hnbtyaduZFWcf5qqNOr8CFV7KyqvyXQD0ZpS8ZlW+Jr5rPmOOj4dSu500vVK7uK1+UrQblX80bHXya8lkXEuYSS88HaljXtdiavk+LtTCZ7pVVZXtkHw+6R8WNRuh39riLfMS6rQ/rIyKdOtp3IPwD0t6pbXGrwL45MHrKEaTiaRVrzuFeYT0X5N1em11kCXW5+RtW5kq2NR51UWy+5gqhipB8g/bgKLQ5XoU3h9VhwvYRuGqsyrxqqhLOUum+H+puZ0EMY8JtmT14L9qdAE3cqWAxM9Jo5B/vkz7lI64fhy1aJ1uYZT/ioKndyFn4nYr0ADAITgMnTliigGx1/ZmiM7wqMLge6d78HDAD6Mnw8OA7o+erL9UyQHrPd0VK1megOd3lUOob0TyxPvzox65nVRfB/Mo7PDc41R54A2ojtLvl10r8B84BEPHwhSVX/p3O6mr56U/Ya0JiK+Nf9ojZGvU0NxY9+yDeQjkV/7rkfdQvRRfmP/dSarjberRFPkXGsgc81agB/5eZa0fUoP0XWS7lYK/JJrJqTrZbWbMhaED8CXYEWwzIG/Gv0SqDTmT54HAAkmvBaYAq6C/gi+Cf28tEEtBkPBJJ3wSpwkTJBtPHfZRn06eDvUf4YfB0V5ZU8FsxNlSn7HtD1iPodB/qDw4FEr6zTmpPJB7IlEH1LyOsUVO/49SM0CGiR60+oTPSxUyddfTRaSEy3h4pR6N3A1UCb8f1AP4riz6RnSOgj60SgcUt6g/lgBdBGpGd4MNBHQb0GLwDfBZJJ9D8YvQx8GgwHJl2pm0rm58QlX7mENnrmdgrWpiXedWo7COwPxIHkZvy+R3381vQS5U8Aza/RwDZSku1+hu11tPmHMkE2BN2Pukmk9Xan+XY06AH0XOMf7Fz+8aUfrkOAuNe9+nS0NhHFehj4BtBm8kswA+TmH1+ak98CJudT9goZjfsSK0SfQPkRjFfz0yTPeG0+NYVGvdHzwQqw2XygD9mNA3nXC6b5Bf/DsL44aqEPejpoaO+Iy79E+eOUzQJ6bnn2E41LUmS9NLdo/jeTT2Lam2egvWvrCUH0BStANfmASm3A+oXSRwl9NKokupfU3duvyhiky25N2SwiH98hp6qT7Bv8m2wmaN0nZYnuAHc1hknXM379eZn6y5INGOwY+Hw0y5j670XxX5vDXiYjgv/f5bSXmd6Gcgm2ulPVOLJkCQad5RStj4maS3nkb3EgNMgat2I5AhTyj73u2u0unWRFuSaMISsOc6DvBwssE+k/kdYcTEst49U9dJF4Cq+X+BlkpYnlmfSgyD8J5pYpXxv4zLUerW/8FFovUbssnjR/9MOw9YVAdKq8A6Q3Zp1qFgGdFEpCfiDQxhlPfv1lhRbfUTJEfx2ovYk+jOjC3z5gvU76HGCLQfrHwDbkF0lfBn4fymairwSlUxZpTch0zBSVRJvjPGAntWQM5OsZ//xS7+UT4uk+oNOKeJoAxE3MJdlExNF4UIqfdBMQb2tBOdGHwCnANsHOpHU6jv+KgWzylzDSJq+Q0Ikrt2A/xxqn9Gry+mh0OUh+eMwp+bNAOnabE1Qlso5/f2htpMnvAmaAt0As4k3PeHCwK+yftseDh0E5ES+TQYfgPzf/tBHvet4m75C4FHQF4sikNeMtEk9N60XjziMM5nqgNWei9a+3nStAzIOe2d3mk3TmeoxsJ2Cfe71E7XLNH7NvjU4WdmscxG0ZbDfyeo1cDZ7iCP9hXB+nsf0EeW3WeqV7CNt34vpa0vhcTDv5/Bf+9CpZN6lH/LUGSyxa8AcC/U2o+FwBnq/0CoW9NuleoC/QNYiuOPSBRq+Amwn2ukroB7oDvULqf5/p9bnhEng/mI41dzWOZ4nl5TyB0LYTdseBjuB58BxtdUVTklr9064nTsSP5rz8rwF6Bva6S7ZZsC3Ev7UrqvOMVz4bFU/R+IvYM4bc+wm2hdaLxZGXT7P/2GqI6ghGAp1IJLqauBCcCbRBuTgDzoAz4Aw0ggE2Xf1dciU5sRExeB/OgDPgDLSWge3l9FjplVV/lvRGa0ny9s6AM+AMNIKBLXqH3IiAK/XB8Xhf6nZP1a/kDs835BQpnnUGnAFnwBlwBpwBZ8AZcAacAWfAGXAGnAFnwBlwBpwBZ8AZcAacAWfAGXAGnAFnwBlwBpwBZ8AZcAacAWfAGXAGnAFnwBlwBpwBZ8AZcAacAWfAGXAGnAFnwBlwBpwBZ8AZcAacAWfAGXAGnAFnwBlwBpwBZ8AZcAacAWfAGXAGnAFnwBlwBpwBZ+Djw8D/AQMhZgEFa28RAAAAAElFTkSuQmCC;" vertex="1" parent="1">
          <mxGeometry x="284.72" y="210" width="242.73" height="30" as="geometry" />
        </mxCell>
        <mxCell id="QuH-ANf1Q-Q6EwVvL0cK-31" value="" style="shape=image;verticalLabelPosition=bottom;labelBackgroundColor=default;verticalAlign=top;aspect=fixed;imageAspect=0;image=data:image/png,iVBORw0KGgoAAAANSUhEUgAAAVoAAABECAYAAADA+v0pAAAAAXNSR0IArs4c6QAAAIRlWElmTU0AKgAAAAgABQESAAMAAAABAAEAAAEaAAUAAAABAAAASgEbAAUAAAABAAAAUgEoAAMAAAABAAIAAIdpAAQAAAABAAAAWgAAAAAAAACQAAAAAQAAAJAAAAABAAOgAQADAAAAAQABAACgAgAEAAAAAQAAAVqgAwAEAAAAAQAAAEQAAAAAa8b1IAAAAAlwSFlzAAAWJQAAFiUBSVIk8AAAHnBJREFUeAHtnQm8VVW9x//7nAvXC4YDIDhClkA4m5KIEgIiFcaLDBvMfJlTmX7KBvU1qI0+9dlzSMumZ1npq/c+BmWWAhqz74XjQ0JFEZAEJRRC4d6z3/e/9nj2Oefes88dgPiv89lnr/Vf03/99lr/vdZ/rb2WiBlDwBAwBAwBQ8AQMAQMAUPAEDAEDAFDwBAwBAwBQ8AQMAQMAUPAEDAEDAFDwBAwBAwBQ8AQMAQMAUPAEDAEDAFDwBAwBAwBQ8AQMAQMAUPAEDAEDAFDwBAwBAwBQ8AQMAQMAUPAEEgh4KXsPWr1Z8sAeUN6SbP43smyNk/m/kzZS5pkN66t3kR5OU/crgzri3gyWwZRjgTHybIWB161zY7Cf20O6/fx75ai9JN9XIxm2cKz/Fv9sS2kIbBrINDUFcX075eRiJoDXFq+EzJ/RQA+pm78DsbvrbFfUTZgvxbaOERlQP6DDPMmyfLAVcd/X/kz8YcS8hWu/u3F8H8v+yLMp0pJZngTZHV7YfP48aLYnfBPwcf+UTlc/AfkHTJBFrebVg7+202nimd3lbdKVsGzLbpnsUfov4T7MdXCdiXN/6PswUv2aGnjRe3xE2nldbuAmtUqb5FjobyJWujzCvB5CT7JtUn6Onovx0dQR9X6OmFWyMmyOv1y9K+UgoyRI/kfWBbeI8ctssSb4uqw87K/nRuBnmovnRa0/iyZRoX8dRZu6CdSzbdRkRdl/XC/VEYruMZSRmrX4ZGjGj+8txe4t1xF6ufCx3EEO6e9oLn8tkof6U1vNmuChp+llrvz8F8es2NXd5W3es79wTYSsvo8VOh1v+klS8lkX4RtYgbKTxgjbaNGnJsQsTXLX3kR6qhnZBk97Zgty3xfLvHGy32O/E75DCW5Lh0ktveVhdhHx26z7NwI9FB7CQRWZ6DyZCvRy4fKPj2LNvk71E1cbRXJt8oV9DCvraDXS/Dlq6T7Oa4vdhilQI8zMEGPu8MI9QXwTnUvCxXe0+HjqvpihaHy8J8rYQJ3U3mrscGo5WHKfhJ+86v5dyOtmnpiE/lV0j3ZXJWeZs6T4eA2g87BO0LyxrR3xt6eXyaoOXd4BHqovaT7BA1hgk5upj8HwSdytUugJMcjZl9hUHekc7e6nqTg/nOYwdU00B8y9J6M+/OOVpDDcb8X+2B6Es/QeP9Euk+E4eMbQ8aD6JkeDmG9u3S8N0P6eKch1DMG3WGL7A0vIgc6L1/2J48pqWCt8qrM86bKaylaNBweC20E1wZeCEsYei703k3ojIHHRyA9QgNdCd+KQbsmD/9RQv4DvCgKYOWhgtHBsCfPc38c/1by196VMz1RXs0IDA/jNobrEK4XuebBz1/g6wTsnTb+fQzym2Q8ZT6UxAaQ7l9JfwF2FaTrKfMqXnFHMaifj9/b8ZtDffuYdwrPAOP/QW5npHEz1klc/4f/kbKO1AbS0/UcXXim/8S1HDQPJsxU6J/g3otQF3P/CHn8ANz/CH0wtAjjq+ky3IH66RnCdMqA4Z7kP4q0e4cJ3U+er/u/g8tmVBwFOFPTKo9F5QrDSb31IQ6vqruidFifybuZ3zvIu5+L68s6eviL4HUiOJwEjuso/y9ou/GcCHH6Eed44hxBnEGEe4Vw96KKeTStiol40TvpjSPccYQbwrWSNO+Fv/2gBWqdkixNY+xUjx3w71Q9Y1EleYxy1JAG9lO5tM2s4ZpDmn92fuFfo+0lnUYee6cFrcssaGhRvpuA7GMU8l8coSg3UNBbIk/uT6XsgbUgv8rQ2hDen/HGyU0R3elSmqjkXtmAURCnowjzcBQuvu8jP8M+LXZ7ruHOiN1q6Sd38f9BtbqK1iJfJ/1LcAYPXT20yrfIeoSpDi1/rqRGTG7+yYRK+Slu18HTbi7PaGAe3ml0Y6hA851fN5fXVcwBcg28XER+EScu6676A+MJpPwDrqFlaSa5vcTQabA3XbZSP6KX68tpYaS6fnBbF3K4GQHWqmlBSwSkNuaJvBxUEIvrKIznrkJXX67OgOvz/j0IjkQx8lxaAEThGrp78iD1SoVTYHw5GmHxGPVMBUT/iExNvxz7tyN3nvqQuz7vRjstyIVRXtw3kd8i+JngaPoMmuR6ntEHaAe/we9YKHPxb3b+0Z8n35Q5ssZvldPBWF+QziAw+1PmHxJ+qiNoenoVqFNpU5DNdJ72IWwbeNTXHschb0R+FCcTvKYCZ1B3SvB7NXXhqjhMzvYSx2vQUmgwXjba8ynCEACcHrsLcjruobG7FPQ8Yne5peScnhNv33EPJ/Iv0rC88t5n5FX17mf0wNUCpcO0yG2k/zmCRUI24EXjefSsCvIzKpn25BozOfknr+Hk+29cgZBVFYzP5E3aFFyvMqCky5IOk7anw+Qt70DXED9NckHVzfKSzqcBO739t5HyTK6hYXTFf1smqX1Y5ZGIvoxnHicNrwmMD+XSBvpmF7dUdT4hT7L1ho17hXGEK3m6Xu06m7s+5H2+XtJTdTx5TPZGQjZmkh54Qd7vnD7PIS1kfdQ2iZpwP1rwrUk0bGkhqx6+1FLBbCDnEkK2/vZYcpPivIMrTNSGdRboq8iT9MutfJ6oIiqEdHup5p+D1jWC9g2Gs5HxnApAh5WROZCHkwjebVUF7UoKNZqLxV5yQRhRB1ATo0TotWxEzB5A/+Qt0D4c0WvdeXtdSDMdgn/Q4/NpRBo3uQbzZr5Y41OJ386DOFvtGB3+vIurL6J9H9xXOKoKmIJ8P7TnvuXln7y0UvQOM5rlhprrXBWcDC1QY5TkhYiR7iwvFfQ4Sn++y8t3qp3R5NeCSkWHZg9GPHTq3lT2UvkGafeTZTyDNqc3fSxOu5UcO2uKrEQQ1g8UUE8V5J+xe1yvkvIPOpt0XfFfklPI66PpsDCgzfooh6kOfrMmR31opD7zPL8MBwdyzSzL2pd7mIUZBl15vpn2E/RAx8ss7JPgdArXiVy6smc8YaL6cBijINe3ZOQ1FoSDnqyPus2XQ8hvT+7a5lfH+fn0YB90KoVDCX92SO+wPdKO7yHv98XpCOqCNjpFc+g0leSMkK7dt9FRGPKvWz5EcTpz7xrVAWtH6WnoatJmrqBBlnN1nnPqJNlGQMgaX6ZScNV3Cg/nDsTbbS6IXz6rH+pin6XhD8ooELIpOrcOKRliBhMknmxkKPNs1YAFeXeKvjdluNG5+6SogXUkPaHB8Lq2wqcOQi7+29ApFcArUJWMp5L8L7j8nWyeoHLOpgJ9k6Hs4nS23VVe8hibyuf06FkxIbiCNcHvQxyqjnZAKkwuK5JT12qc4CL58mvS/1IqgcU01AvB4kHCLHUvrJRnQ9as+kkTKclY8Hy03vSog6OpgxfwhG6mXlWqrtpJCNVHG2VaGYihJKCqRHCtoM6+wb0l8cGWpz40WJ/BfRV5v+Ly1bYqchm060M+lnO/P7SL/I5OQNGp7T7Pc6kcZahY28BTU84L4TyNRt4m01HvPK1W0l7IS+GTxL9H3Zi13pVSgof87dFPLbnz5Qye5XxNkLr1nwhcVSPqUsB+SotM3e0litCJe5f0aN3bWJLeVciPTkQ44Rnz58karWSxO7LoCoXEaGXrWVPiA4hyoz3y9JX4+q5Hnbi7yRbqA7XXk34xqegfRYWZSjX+byqpThjlN/nLq1io2YK4S3qXEMI1paudb6N/97uRQ9AIVH+ZMWGj2Yv6dEzGS0V05eswmlipCBwSdM5Ae0+6KiYynlzuBH7k7uhelEsJchbP4eKOgnaFf676kP/5VrLoMRGXCNlK/z7yU7BXHWqlkM2G9pjsUoO6qWK9vO9GF+UxOs9//FxD2dT5UVA5h7ldXdOjDbJ9nttbYw5KrK31nAA9KqbpLOP2MjpjnzFMQBQ83qCQkwk6H12V5ybJMqFDZ1vFC6V6uE5S6fGcBh+fhLvzqKBP0Ss4miRHcI2BruqD/aBpI682gtBK3XXlbZLnyEdNC33b07hHPRCdZBqKW1ciNG7mMnk1zqlD+lHe0SR0U0Vim/DZXUbQYp4MG88Kwuhs+ClgNQRBpPVPJzX7QVOM1Dzn/rN/bXKjTobB+12EnUHYoVxnME54mBnzqAeXjZV1RwJmz6xHbrd+eBEaN+mo68MD/iOyrjbIUx+6tT471YTIBxxzPqM7j0niEqoE5bvoVCKBX8R9CSWQdumYb9By8KxmRF7QAp1vTHCWbuW/PKvQ1X57qRolD7HrBK0uO0qbkltJsInh1bdishcIWm0YPJRpcWUqynSGoLcgljfTt/lIHJ7vc2gMs3izPsFQbSQPaxxxdAgwLA5TlLMIcwK0EmnqsrDyXrTPcEwrLUtKqCDTCLOedEZB0cY4gbiPMpz5OAMhnXjRCr87YXRZ1zz89cWgwk11uLp8ZAs+63CLm7wp0iyD3tMhSnPGk4+S5vHQS6Q4l+HJEqXn5r+AgFVB4qGr1ZlZrcji8tZJQRW0apKXWOBWAdv15e0vD8ViuyDfpXwqDBdyKTZnwk8g1PlKDr+z6SfeXW3JXcRi9q4vO4aLmt4kyvoh0tjKuOc/KMtaUlZVjpbzS9wHIww/D+rX4bcA91lcTcT5LXFU3bSW6zJo+3NXLB50N51YFJZ0RaYgnyD8Q9SVmTyX95DHYuL0xfsb1JFt2H/DpWUcGkUhrfcQJz30TDoVcaAcFp+6FJminEe+OtF0AvlcSt7Nodex5BmoqvLUh1ZQylufZ6Nn1Tquy+G0vYgcQN6XOJt+SVeSBSkVyVBHD/4eQMnwS3jfl0vXlCfterhcwGqbXxF3Dn5B+yrKnaSr+uCnyOckkvhiKq3AmpN/t6KnwLxKZOCBF+5qlmSu4/mqblmXRWp9GBXjmYTtsL1QT5TPTpkA0k4lEUSmonwFMK9yLl+ehjknfCjYwxTy2JD+beiXQ7sX2uRMtv8KEMuh356hL/HGyTHE0TfnoIxf1rmSsEPSRPj6AnyVLyFJBxCm2Hwasy+f7SBcEAsFPmVYCD8vwM8B5UllXL6sIuyBSs3LP4LnPqJNyqRY7izJOUwE/ChN7LbyzpHvkY8K/46NLxdR7vSSvg7jwLd+NLCAgFk1TjbuZ3nGN4BnE/jry6dWI1jMMx0DH62EfY6wZfXCJRpMyjxN3h8m7ztTGc3HHuiMU8SqViaPyEN7+blMuPxqPXzt3m5EX+4k/TPz1oc66kGQrU5I6WT2bm5SqrY8YKQHH04Pz1rl/RDky0mgUm1TWZg7eF4fg59EPlSGiXiJ600u/j23LO2ssmR14k6og+j1y+jCWuhgOZgj15GPkw9ajzLp5HJqh75rTHmPNr0u9q44g7BHSwP4E1eace1BPkkvZhlhX43DCz0bP57wmQudkWNNs82lm/VezrKkkltqsqHMS7+CFwS+L5MURASWCvoPQVtTFi5xvEA6X6OPtNiRPCcUavOj5dNyJiYf/zqk1d53OR5Rauvg5dKskHWe3VXeZayf9ektSpk+XbNUnbr2VgKjvVC/8mOTyLvWnbIs4/nryzeNWTq4PpcrGNN8R4mu4m+kNxo82+xzuINe9eRU46iG/eMko/gKeevQN3jBB8uUVEhvVr8OTfBlZIfBsgHobb1BHlOgp+u7BtNRVGRewxJMtOWsD7nqc7A8KhmuR7lHd63LHqOa0KBnXQNeqh54MaK5e7AE8W8p2muEW6Ru+Lka+/lYy8vrZ0bCYeRc/PPRENHSdXAj7kfIaTX3Z8Mk9RbzE9PqbC9x+AYttd9gDSa4o0bzv4da4BC3zKSFCq4952dSDTFm20dvyzt+CG/s4YTTBryK1asv0DDKK0gco3stjp8T0YHq1zOqAyvRO9sK79pQ2zHdVV7XE+uF6qbo1p6+DC9LvcnhTHU7/OTx4uuwA0l/KM9In5Xul6ENWkdJ6ZdznCQfFryJfuHhhC3ye5xw6cYeh9sRLe45DXNfuPXn2a5gQeNSGmX2xRGznrc+dGd9Dj9iOQJu96Bm6oT2U2DvXl4xwxmLG4n4rm31J84reO/Jc45erh+nt/njdJTu5L8snzrlQzpOHvsuI2jzgGJhDQFDoHsQQNCOYOSyr0u9CbvP14/BV5vaJx3JnEZ2qN89jPRwqk09nJ9lZwgYArsoAghZ/TT/J2jXExN19Xz57T+qkNXCdp2ONoHObIaAIWAIVCKQXmmR+L5Er/Y21tNMS0j/eLboffKPVzIrkSFgCOxwCNCrHYqm/U2OMY95homyHCFUUye9wxXAGDIEDAFDwBAwBAwBQ8AQMAQMAUPAEDAEDAFDwBAwBAwBQ8AQMAQMAUPAEDAEDIFyBGzVQTke5uoiBJhdHsCcci/dyp2vhXSzFzM1EGBDpb1YW7ob11Y2bnm5RrDtQnabd/dz21jqicJbdqav7rYLYDUyTS8drhHEyFkE2BFoGAuvh7IoRT+KfZXvst333AiXJih6YOAezq/If/BZ4qpsGjur2+2U1Ox205/Bdnf6LXmFAYfZ4DMuPIRHD0wcxvfxyysCGiFAoC+bvGt90tM9JHVmWOC73f6p5wfzSbPyFm0JqTvRHbPdGNqJMzZBm/PhuW3XmuQPqWgltn0cjdDRzWauQ/AGW8slATbQK3AHCiakndjWmx3aPDmXBngcpTinakmyO2VV7K5aNdauS9RDktToa3vHMv1TQlb5sxFwg89nR3uwDRajB6MV3QGRpVSOutnx7a43K1U2M/HZbGOD69mmouzE1kK41yv7ldYshc/ZUSW5tqa/eZQj4HNUvc/BoH6VvVnLQ/aoy+0/67ttKHXbSDOdQMDeUA2AR69WzyzTXeK1VxeZK9h56Fv0bt9Cv+R63v1T8XiWzf9GeOcnW7iFu2rpcTTj8Ff853Di1qJ0GGgNGXe6QDObjgcH+Q0idT3Y7l42yn6UjOKvb3gp7IkgHEW43mFG96N7e534A9HDHQu96OitHGfCuWtqdzs17U3aTfLvOHWnrCe567aJkWllf7N53lT3ItL9dyeT/73Os+ROQn4z9sHQniGubtD+RBSxkbvbRayZgxsL4WbcvqxTFQ75TiQPPXlhHZuX/CKr8wyHw2PJcwSXbs+5BF3ywlq7s5GehjuRazjXetLUkctqEBrGXU/E2sz/Y+T59jx4alQ2jz+IdA4nbtION7HR/WkVW1HqyRHN/HqivIfB2hiuQ7h017R5XOfD4dlg+gjP7WjcZnIikDzgnBF39eA0wN9T+U6NcdDjt7fJEaqLZDPh79PozqVi6rZxb4vCQJ8A/b9wp3fqVxG4ieuDCIrfRmHz3uFHN1efC0/NVeKu4bPH0xE6C9TPn+MOITwiDufTePQssHdyDquX0hH6cjn8fzuM82vu7X+P7stdhP+gC58WtHFGoUX3LfXkM7yYbsp61esGy++C5YVx+OD8r0WkOyGm6V657JsKrr9xgqrFnXGlqp1eqTCK/3quSwj384jOi6U303l6JtZnuYIXT+RZeV8DKTgXS/3qwfP37GDVzEsse1Bkq4xyPclMHj1Q3hbKew2YXkTW1eWCCdrMU6nfaaqD+rFqPyTnIdF8v18rEIJwCtVXBWkgZIONwYP9VXWX/QKHLc6m59eo0Qm4tJANNrBuC5PbD1FxayrpypntKxEPHoK2lqnnjPuOwwQql0BwfYfeZf9a2XVI9zKz84phuZDVJPR4mPe7tFrYuMRjeJ4I2UT9oyf4FuRnCDPtyQVmIBvBFzg2JxKy+nKobjQd3Wi63HSEZ5Feqxf0/ssj1nB1f3lvoLyfJvdAyGrHwUyXIWCCtvNQ6vA4mBxDHYCwPKdGkjdRhVnsRAXWneb/wjEgWxAOHEdDeN00WXtZtzK+r96bqJFoTB7PsS6tHH1TQqCXGOqW3MqA8eT3YBjmMLdURx0vuXOUPhrHxUKmKiaPYhh9MM5ECIWB6KleSI99CM75juSz0qIVNUlyDaZHeHEYPHtbSeqjubT8F4SeqqCYmA1Yrxt+9NypA7lmlsXxOThyK8N6Dm3kuhn+rkGA6plvZ4fhVJ3yLq6+oL4PtCtCuk5JuRclL4CRhI8mNV8k7Mmg2BtUVI0QPOsgkvr1BzdVpeTD8xSE82vouRU/4SidDkw3l/c4ynu+Y8F3qh09rqnF1YWk/nTAoXm3h4CtOmgPnXr93kB4NDudYx8q7LVcc9NREb4joA0NaZcjkFyDDt0/wv8g/L/KNUAeYBg/gSU1ec3vEARFd+ik9sL2qIiuPbMNiBK0inrkO7rklVDKDPStEFagWtDTG1rKPHGovha/4PQCTzYyxH02G6aq25epNFw9bkR1vXcg3m5z4fwOz4CrmlxEJM1V8PNKmJaODi6Ddn3or8vJ7lc7Yb4c0vS2N/jc6Nx9UtTAOpJnMRjrybGPL58kzTmhe5k/Q97H3lO6OfVBCNe/4+fwaAjPQBf7bKjzj7OsZenG8o5N5Xk6+bhn5Z1KXZhJefvSLdC6aaZhBKxH2zB0SUStkPR2osa8Fz6nJb7Y/NTaw1ZEada0Jsd3I/yGZ73rcveRn9IYVKdYKWTrSqAbA7WVTe6oMO964zFxlwjZ8vRLFQc+6kRP+krC+/QwVQ2TmLKXZjhRtTbx3k62rixvgIUWZIvT1aeK5E3h9ayTf2Y6hYD1aDsFXyryembjB3K4Y3Tib8oLIfw/ri+ptKI7APLxtDcz+e+O3cEBlbGzHosbGos7LE+Fup4WrIcNzsKuw3Md0n6g3XTakskht7pA46FLaNfo+VwZ43PemsfR4RnyjuB8KmaC01wp212xO2tp43TjYvABSuj1Y3qcl2jvnd7u7tA+waXH1dc2jeBZO7VGfPKVt0meCzNp4VQ97STcE2VKmYdi15UIZjqBgAnaBsBDsB1KtANcVF+GURk/hXhRXaGuNNDj1ctwpZH+hTDPQNelX5czlB1EuJ+GWZ8B/bwwrbWoDZaE9Dy3oanAD6D3+yX57Ms1nXymkX5ghssFfNn1Kw5TVN3iljhOUc6jTDpxdAL0SwnfHPodC9+D6SkmPTgf9YKm58lxxJlG+PXEU8EzBtoEwj8KFmeW5VuU6QxBb6Ffuxm1wUfifAsyhvCzSP+JmFanhXgnkt/R5HOk44fnAe0SF12/2CvJAnAPTpBt5Uu13m6JXS/8d8dXl3XNI95K3Kp3VR3u0Vxb8FnHC1MnBR/jOgLaFJ7mFJ6ZhtXhc6XCASJp5sLT6YELMo70e3EN0yScKcpZlOMEaCXS1GVwgcqlO8vbnxNuo9dmQb5L/qPhZSGXYnMmvAS+nuyP39mskbm72hI0x7/9VUUgaoJVPY1YHQEq24tUPtXlJUbPPDqZBjmb5VBeuPA8tbwL+vEEnolf9Zl2n8mRkryXL8weShKtz8YnrvshSFQnWV0IlCdzh8e59uFyp/Xwo7202saXOynXmVEAhOsXEKzXRO4q99cQEPNJ99SMnx7nrqcP356hL4GfXJ91us+Ad3PD2dr1l54rfMd6xTr4Dthi0o54C9G57o94mQUxEYIZximPnqT8ViXnxZP6oCOPQdkkM+6VYDOkR8o7R75H3sELP8NEhdOXiyj3LRV0I9REoFDTxzzaQ2AunvEHANh1qc4iF2Edn6j68rSze25yKbDSeKGPwfEnrrSechv0efRCT2pEyGrirN1dg5BW9cCL6o6NLknSZV6Jic+1d8eV+/TWpOIYde25ReY1LEGvMKIslxvI61acqrtLjO8m0O4lv0lcD3G1Jp6uB/kk3CyD9mqKvpVwi1Pu+qwlNwGWDI+zsTRvr/yFxQSkCvoPEXRNNnjofoFyfQ0dpeOHZ7EabnXIfB70XxBXe3gzuL7CdTdXmWkAz2wdKksPh9YLrSu6BkQn/Lq1vJT1IvK7jHx0BUzaaF3dFhNUNeXnH4HE8XdRS+0ewS4KSE8U2+lB+/NVWYHfOr4Km54adnaCAZfuAIa7OplTcA1GP5hY316S7ku1YW4jnP406BUsuFpKpUi/RKpGD79wG4tAayG09lS1d5cWrlXjbW+ijx6ZgfEQRgDD4VvLuYoFdy/U+jKsGr/0jm8klU8TO+7RRuEaxTOK39X3vOV1PfNe9OKL8mZ4eZkuwVJUTcHKjq5mbhdKzwTtLvSwraidQ8BtZ9jH6W11Cd17ELT6RdlEdnZ4rJ6XU+dyt9g7MwImaHfmp2e89xgC/n2sJu3t9KqVOm3TWfbYc9hZMzId7c765IzvnkWgt/sE9/WqmaZ08VX9jbjLI2A92l2+ChgA9SKA/rIfi7H0M+TENLFrWHr5W+JjNkPAEDAEDAFDwBAwBAwBQ8AQMAQMAUPAEDAEDAFDwBAwBAwBQ8AQMAQMAUPAEDAEDAFDwBAwBAwBQ8AQMAQMAUPAEDAEDAFDwBAwBAwBQ8AQMAQMAUPAEDAEDAFDwBAwBAwBQ8AQMAQMAUPAEDAEDAFDwBAwBAwBQ8AQMAQMAUPAEDAEDIHcCPw/qQGZ9J4cuPcAAAAASUVORK5CYII=;" vertex="1" parent="1">
          <mxGeometry x="276.15" y="640" width="264.59" height="52" as="geometry" />
        </mxCell>
      </root>
    </mxGraphModel>
  </diagram>
</mxfile>
